<?xml version="1.0" encoding="utf-8"?>
<!-- Generator: Adobe Illustrator 17.0.0, SVG Export Plug-In . SVG Version: 6.00 Build 0)  -->
<!DOCTYPE svg PUBLIC "-//W3C//DTD SVG 1.1//EN" "http://www.w3.org/Graphics/SVG/1.1/DTD/svg11.dtd">
<svg version="1.1" id="OBJECTS" xmlns="http://www.w3.org/2000/svg" xmlns:xlink="http://www.w3.org/1999/xlink" x="0px" y="0px"
	 width="500px" height="500px" viewBox="0 0 500 500" enable-background="new 0 0 500 500" xml:space="preserve">
<g>
	<g>
		<g>
			<g>
				<defs>
					<path id="SVGID_1_" d="M40.038,492.624h422.986c0.284-1.127,0.531-2.266,0.694-3.427c2.38-17.04-7.506-35.004-2.012-51.124
						c3.437-10.085,12.018-16.578,18.739-24.337c19.48-22.487,23.128-60.016,8.421-86.638c-7.612-13.78-19.178-24.234-28.07-37.024
						c-18.439-26.523-24.233-63.383-14.984-95.323c4.447-15.357,12.037-29.33,17.447-44.298
						c8.337-23.066,21.412-78.645-20.448-110.993c-47.228-36.496-95.998-17.374-120.919-0.451
						C299.283,54.36,208.563,34.415,147.5,58.126c-35.542,13.801-101.574,56.518-72.011,151.395
						c10.459,33.568,4.323,92.006-8.746,109.389C51.618,339.026,9.66,372.945,9.66,418.782
						C9.66,454.836,22.43,489.768,40.038,492.624z"/>
				</defs>
				<clipPath id="SVGID_2_">
					<use xlink:href="#SVGID_1_"  overflow="visible"/>
				</clipPath>
			</g>
		</g>
		<g>
			<path fill="#EBEBF3" d="M40.038,492.624h422.986c0.284-1.127,0.531-2.266,0.694-3.427c2.38-17.04-7.506-35.004-2.012-51.124
				c3.437-10.085,12.018-16.578,18.739-24.337c19.48-22.487,23.128-60.016,8.421-86.638c-7.612-13.78-19.178-24.234-28.07-37.024
				c-18.439-26.523-24.233-63.383-14.984-95.323c4.447-15.357,12.037-29.33,17.447-44.298
				c8.337-23.066,21.412-78.645-20.448-110.993c-47.228-36.496-95.998-17.374-120.919-0.451
				C299.283,54.36,208.563,34.415,147.5,58.126c-35.542,13.801-101.574,56.518-72.011,151.395
				c10.459,33.568,4.323,92.006-8.746,109.389C51.618,339.026,9.66,372.945,9.66,418.782C9.66,454.836,22.43,489.768,40.038,492.624
				z"/>
			<g>
				<defs>
					<path id="SVGID_3_" d="M40.038,492.624h422.986c0.284-1.127,0.531-2.266,0.694-3.427c2.38-17.04-7.506-35.004-2.012-51.124
						c3.437-10.085,12.018-16.578,18.739-24.337c19.48-22.487,23.128-60.016,8.421-86.638c-7.612-13.78-19.178-24.234-28.07-37.024
						c-18.439-26.523-24.233-63.383-14.984-95.323c4.447-15.357,12.037-29.33,17.447-44.298
						c8.337-23.066,21.412-78.645-20.448-110.993c-47.228-36.496-95.998-17.374-120.919-0.451
						C299.283,54.36,208.563,34.415,147.5,58.126c-35.542,13.801-101.574,56.518-72.011,151.395
						c10.459,33.568,4.323,92.006-8.746,109.389C51.618,339.026,9.66,372.945,9.66,418.782
						C9.66,454.836,22.43,489.768,40.038,492.624z"/>
				</defs>
				<clipPath id="SVGID_4_">
					<use xlink:href="#SVGID_3_"  overflow="visible"/>
				</clipPath>
				<rect x="14.743" y="457.633" clip-path="url(#SVGID_4_)" fill="#A9A9B3" width="453.329" height="34.991"/>
				<rect x="14.743" y="475.128" clip-path="url(#SVGID_4_)" fill="#86868F" width="453.329" height="17.495"/>
				<path clip-path="url(#SVGID_4_)" fill="#D1D1F3" d="M156.145,242.956c0,0,1.387-17.785,19.832-24.263
					c18.444-6.477,24.592,20.75,19.323,30.411c0,0,7.026-12.296,19.322-7.026c0,0-11.753-20.64,3.785-28.325
					c15.538-7.685,24.321,7.905,19.929,17.676c0,0,21.079-15.344,30.74-1.03c9.661,14.314-12.296,28.806-12.296,28.806
					s20.201-6.587,28.984,5.709c0,0-8.344-20.201,7.685-21.957c16.029-1.757,15.151,16.248,15.151,16.248
					s1.757-28.545,16.688-29.423c14.931-0.878,20.838,9.577,18.763,24.111c0,0,16.996-1.276,16.996,11.021v194.764H156.134
					L156.145,242.956z"/>
				<path clip-path="url(#SVGID_4_)" fill="#E0E0F3" d="M-94.642,413.675c0,0,21.992-33.267,71.65-26.021
					c49.658,7.246,81.855-6.368,107.476-26.349c25.621-19.981,91.642-82.713,140.313-75.939s81.168,38.392,91.707,80.55
					c10.54,42.158,87.829,25.471,108.03,0c20.201-25.47,72.899-48.565,89.586-17.695c16.688,30.87,68.507,39.436,97.491,25.931
					l0.721,85.525H-95.141L-94.642,413.675z"/>
				<g clip-path="url(#SVGID_4_)">
					<g>
						<path fill="#F5F6F8" d="M30.699,483.712H-96.458V458.36H30.699V483.712z M-93.824,481.078H28.065v-20.083H-93.824V481.078z"/>
						<path fill="#F5F6F8" d="M30.699,467.19H-96.458v-8.829H30.699V467.19z M-93.824,464.555H28.065v-3.56H-93.824V464.555z"/>
					</g>
					<g>
						<path fill="#F5F6F8" d="M156.342,483.712H29.185V458.36h127.157V483.712z M31.82,481.078h121.888v-20.083H31.82V481.078z"/>
						<path fill="#F5F6F8" d="M156.342,467.19H29.185v-8.829h127.157V467.19z M31.82,464.555h121.888v-3.56H31.82V464.555z"/>
					</g>
					<g>
						<path fill="#F5F6F8" d="M281.985,483.712H154.828V458.36h127.157V483.712z M157.463,481.078h121.888v-20.083H157.463V481.078z
							"/>
						<path fill="#F5F6F8" d="M281.985,467.19H154.828v-8.829h127.157V467.19z M157.463,464.555h121.888v-3.56H157.463V464.555z"/>
					</g>
					<g>
						<path fill="#F5F6F8" d="M407.628,483.712H280.471V458.36h127.157V483.712z M283.106,481.078h121.888v-20.083H283.106V481.078z
							"/>
						<path fill="#F5F6F8" d="M407.628,467.19H280.471v-8.829h127.157V467.19z M283.106,464.555h121.888v-3.56H283.106V464.555z"/>
					</g>
					<g>
						<path fill="#F5F6F8" d="M533.271,483.712H406.114V458.36h127.157V483.712z M408.749,481.078h121.888v-20.083H408.749V481.078z
							"/>
						<path fill="#F5F6F8" d="M533.271,467.19H406.114v-8.829h127.157V467.19z M408.749,464.555h121.888v-3.56H408.749V464.555z"/>
					</g>
				</g>
				<g clip-path="url(#SVGID_4_)">
					<path fill="#F5F6F8" d="M283.105,460.995H154.828v-174.34l128.278,53.129V460.995z M157.463,458.361H280.47V341.544
						l-123.008-50.947V458.361z"/>
					<path fill="#F5F6F8" d="M282.509,341.674c-1.596,0-3.2-0.313-4.722-0.947l-122.96-51.222v-26.569l132.392,55.153
						c4.584,1.91,7.547,6.353,7.547,11.319c0,4.109-2.042,7.924-5.46,10.204C287.258,340.977,284.892,341.674,282.509,341.674z
						 M157.463,287.748l121.339,50.548c3.024,1.257,6.32,0.94,9.043-0.876c2.684-1.79,4.287-4.785,4.287-8.012
						c0-3.898-2.326-7.387-5.926-8.888l-128.743-53.632V287.748z"/>
					<path fill="#F5F6F8" d="M188.712,460.995h-33.895V359.988h33.895V460.995z M157.452,458.361h28.626v-95.737h-28.626V458.361z"
						/>
					<path fill="#F5F6F8" d="M204.522,460.995h-18.444v-74.658h18.444V460.995z M188.712,458.361h13.174v-69.388h-13.174V458.361z"
						/>
					<path fill="#F5F6F8" d="M188.712,382.385h-33.895v-9.55h33.895V382.385z M157.452,379.75h28.626v-4.28h-28.626V379.75z"/>
					<path fill="#F5F6F8" d="M188.712,402.147h-33.895v-9.55h33.895V402.147z M157.452,399.512h28.626v-4.28h-28.626V399.512z"/>
					<path fill="#F5F6F8" d="M188.712,421.908h-33.895v-9.55h33.895V421.908z M157.452,419.273h28.626v-4.28h-28.626V419.273z"/>
					<path fill="#F5F6F8" d="M188.712,441.67h-33.895v-9.55h33.895V441.67z M157.452,439.035h28.626v-4.28h-28.626V439.035z"/>
					<path fill="#F5F6F8" d="M203.204,450.892h-1.318v-54.837h1.318c9.109,0,16.52,7.411,16.52,16.52v21.798
						C219.725,443.481,212.314,450.892,203.204,450.892z M204.522,398.751v49.444c7.041-0.666,12.568-6.612,12.568-13.823v-21.798
						C217.09,405.363,211.562,399.418,204.522,398.751z"/>
				</g>
				<g clip-path="url(#SVGID_4_)">
					<g>
						<path fill="#F5F6F8" d="M157.463,460.995H-96.458v-287.3h253.921V460.995z M-93.823,458.361h248.651V176.33H-93.823V458.361z"
							/>
						<path fill="#F5F6F8" d="M135.982,460.995H29.185V235.448h106.797V460.995z M31.82,458.361h101.527V238.083H31.82V458.361z"/>
						<path fill="#F5F6F8" d="M122.215,308.566H44.237v-55.991h77.978V308.566z M46.872,305.931h72.708v-50.721H46.872V305.931z"/>
						<path fill="#F5F6F8" d="M117.571,303.255H48.881v-45.368h68.689V303.255z M51.516,300.62h63.419v-40.098H51.516V300.62z"/>
						<circle fill="#F5F6F8" cx="52.25" cy="333.968" r="6.696"/>
						<path fill="#F5F6F8" d="M-3.464,335.285h-93.165v-99.837h93.165V335.285z M-93.994,332.65h87.896v-94.567h-87.896V332.65z"/>
						<path fill="#F5F6F8" d="M-11.539,324.417h-85.09v-88.969h85.09V324.417z M-93.994,321.783h79.821v-83.7h-79.821V321.783z"/>
						<path fill="#F5F6F8" d="M157.463,205.628H-96.458v-31.933h253.921V205.628z M-93.823,202.993h248.651V176.33H-93.823V202.993z
							"/>
						<path fill="#F5F6F8" d="M157.463,176.33H-96.458V60.709h253.921V176.33z M-93.823,173.695h248.651V63.344H-93.823V173.695z"/>
						<g>
							<path fill="#F5F6F8" d="M157.452,176.33h-38.461V60.709h38.461V176.33z M121.627,173.695h33.191V63.344h-33.191V173.695z"/>
							<path fill="#F5F6F8" d="M121.627,176.33h-38.46V60.709h38.46V176.33z M85.801,173.695h33.19V63.344h-33.19V173.695z"/>
							<path fill="#F5F6F8" d="M85.801,176.33h-38.46V60.709h38.46V176.33z M49.976,173.695h33.19V63.344h-33.19V173.695z"/>
							<path fill="#F5F6F8" d="M49.976,176.33h-38.46V60.709h38.46V176.33z M14.151,173.695h33.19V63.344h-33.19V173.695z"/>
							<path fill="#F5F6F8" d="M14.151,176.33h-38.461V60.709h38.461V176.33z M-21.674,173.695h33.191V63.344h-33.191V173.695z"/>
							<path fill="#F5F6F8" d="M-21.674,176.33h-38.46V60.709h38.46V176.33z M-57.499,173.695h33.19V63.344h-33.19V173.695z"/>
							<path fill="#F5F6F8" d="M-57.499,176.33h-38.46V60.709h38.46V176.33z M-93.325,173.695h33.19V63.344h-33.19V173.695z"/>
						</g>
						<g>
							<path fill="#F5F6F8" d="M138.222,205.463c-10.604,0-19.23-8.626-19.23-19.23v-11.715h38.461v11.715
								C157.452,196.836,148.826,205.463,138.222,205.463z M121.627,177.153v9.08c0,9.151,7.445,16.595,16.595,16.595
								c9.151,0,16.595-7.444,16.595-16.595v-9.08H121.627z"/>
							<path fill="#F5F6F8" d="M102.397,205.463c-10.604,0-19.23-8.626-19.23-19.23v-11.715h38.46v11.715
								C121.627,196.836,113,205.463,102.397,205.463z M85.801,177.153v9.08c0,9.151,7.445,16.595,16.595,16.595
								s16.595-7.444,16.595-16.595v-9.08H85.801z"/>
							<path fill="#F5F6F8" d="M66.572,205.463c-10.604,0-19.23-8.626-19.23-19.23v-11.715h38.46v11.715
								C85.801,196.836,77.175,205.463,66.572,205.463z M49.976,177.153v9.08c0,9.151,7.444,16.595,16.595,16.595h0
								c9.151,0,16.595-7.444,16.595-16.595v-9.08H49.976z"/>
							<path fill="#F5F6F8" d="M30.746,205.463c-10.603,0-19.23-8.626-19.23-19.23v-11.715h38.46v11.715
								C49.976,196.836,41.35,205.463,30.746,205.463z M14.151,177.153v9.08c0,9.151,7.444,16.595,16.595,16.595
								s16.595-7.444,16.595-16.595v-9.08H14.151z"/>
							<path fill="#F5F6F8" d="M-5.079,205.463c-10.604,0-19.23-8.626-19.23-19.23v-11.715h38.461v11.715
								C14.151,196.836,5.525,205.463-5.079,205.463z M-21.674,177.153v9.08c0,9.151,7.445,16.595,16.595,16.595
								s16.595-7.444,16.595-16.595v-9.08H-21.674z"/>
							<path fill="#F5F6F8" d="M-40.904,205.463c-10.604,0-19.23-8.626-19.23-19.23v-11.715h38.46v11.715
								C-21.674,196.836-30.301,205.463-40.904,205.463z M-57.499,177.153v9.08c0,9.151,7.445,16.595,16.595,16.595
								c9.151,0,16.595-7.444,16.595-16.595v-9.08H-57.499z"/>
							<path fill="#F5F6F8" d="M-76.73,205.463c-10.603,0-19.23-8.626-19.23-19.23v-11.715h38.46v11.715
								C-57.499,196.836-66.126,205.463-76.73,205.463z M-93.325,177.153v9.08c0,9.151,7.444,16.595,16.595,16.595
								s16.595-7.444,16.595-16.595v-9.08H-93.325z"/>
						</g>
						<path fill="#F5F6F8" d="M129.724,224.951H35.443c-3.451,0-6.258-2.807-6.258-6.258c0-3.451,2.807-6.258,6.258-6.258h94.281
							c3.451,0,6.258,2.807,6.258,6.258C135.982,222.143,133.175,224.951,129.724,224.951z M35.443,215.07
							c-1.998,0-3.623,1.626-3.623,3.623c0,1.997,1.625,3.623,3.623,3.623h94.281c1.997,0,3.623-1.626,3.623-3.623
							c0-1.997-1.626-3.623-3.623-3.623H35.443z"/>
					</g>
					<path fill="#F5F6F8" d="M156.145,63.344H-95.312c-0.728,0-1.317-0.59-1.317-1.317V34.799c0-0.728,0.59-1.318,1.317-1.318
						h251.457c0.728,0,1.318,0.59,1.318,1.318v27.228C157.463,62.754,156.873,63.344,156.145,63.344z M-93.994,60.709h248.822
						V36.117H-93.994V60.709z"/>
				</g>
				<g clip-path="url(#SVGID_4_)">
					<g>
						<path fill="#F5F6F8" d="M613.65,460.995h-253.92v-287.3h253.92V460.995z M362.364,458.361h248.651V176.33H362.364V458.361z"/>
						<path fill="#F5F6F8" d="M488.006,460.995H381.21V235.448h106.797V460.995z M383.845,458.361h101.527V238.083H383.845V458.361z
							"/>
						<path fill="#F5F6F8" d="M472.955,308.566h-77.979v-55.991h77.979V308.566z M397.611,305.931h72.709v-50.721h-72.709V305.931z"
							/>
						<path fill="#F5F6F8" d="M468.31,303.255h-68.69v-45.368h68.69V303.255z M402.255,300.62h63.42v-40.098h-63.42V300.62z"/>
						<circle fill="#F5F6F8" cx="400.735" cy="333.968" r="6.696"/>
						<path fill="#F5F6F8" d="M613.821,335.285h-93.165v-99.837h93.165V335.285z M523.29,332.65h87.896v-94.567H523.29V332.65z"/>
						<path fill="#F5F6F8" d="M613.821,324.417H528.73v-88.969h85.091V324.417z M531.365,321.783h79.821v-83.7h-79.821V321.783z"/>
						<path fill="#F5F6F8" d="M613.65,205.628h-253.92v-31.933h253.92V205.628z M362.364,202.993h248.651V176.33H362.364V202.993z"
							/>
						<path fill="#F5F6F8" d="M613.65,176.33h-253.92V60.709h253.92V176.33z M362.364,173.695h248.651V63.344H362.364V173.695z"/>
						<g>
							<path fill="#F5F6F8" d="M398.2,176.33h-38.461V60.709H398.2V176.33z M362.374,173.695h33.191V63.344h-33.191V173.695z"/>
							<path fill="#F5F6F8" d="M434.025,176.33h-38.459V60.709h38.459V176.33z M398.2,173.695h33.19V63.344H398.2V173.695z"/>
							<path fill="#F5F6F8" d="M469.85,176.33h-38.46V60.709h38.46V176.33z M434.025,173.695h33.191V63.344h-33.191V173.695z"/>
							<path fill="#F5F6F8" d="M505.675,176.33h-38.459V60.709h38.459V176.33z M469.85,173.695h33.19V63.344h-33.19V173.695z"/>
							<path fill="#F5F6F8" d="M541.5,176.33H503.04V60.709H541.5V176.33z M505.675,173.695h33.191V63.344h-33.191V173.695z"/>
							<path fill="#F5F6F8" d="M577.326,176.33h-38.461V60.709h38.461V176.33z M541.5,173.695h33.191V63.344H541.5V173.695z"/>
							<path fill="#F5F6F8" d="M613.151,176.33h-38.459V60.709h38.459V176.33z M577.326,173.695h33.19V63.344h-33.19V173.695z"/>
						</g>
						<g>
							<path fill="#F5F6F8" d="M378.97,205.463c-10.604,0-19.23-8.626-19.23-19.23v-11.715H398.2v11.715
								C398.2,196.836,389.574,205.463,378.97,205.463z M362.374,177.153v9.08c0,9.151,7.444,16.595,16.595,16.595
								s16.595-7.444,16.595-16.595v-9.08H362.374z"/>
							<path fill="#F5F6F8" d="M414.794,205.463c-10.603,0-19.229-8.626-19.229-19.23v-11.715h38.459v11.715
								C434.025,196.836,425.398,205.463,414.794,205.463z M398.2,177.153v9.08c0,9.151,7.444,16.595,16.594,16.595
								c9.151,0,16.595-7.444,16.595-16.595v-9.08H398.2z"/>
							<path fill="#F5F6F8" d="M450.62,205.463c-10.604,0-19.23-8.626-19.23-19.23v-11.715h38.46v11.715
								C469.85,196.836,461.224,205.463,450.62,205.463z M434.025,177.153v9.08c0,9.151,7.444,16.595,16.595,16.595
								c9.151,0,16.595-7.444,16.595-16.595v-9.08H434.025z"/>
							<path fill="#F5F6F8" d="M486.446,205.463c-10.604,0-19.23-8.626-19.23-19.23v-11.715h38.459v11.715
								C505.675,196.836,497.048,205.463,486.446,205.463z M469.85,177.153v9.08c0,9.151,7.444,16.595,16.595,16.595
								c9.15,0,16.594-7.444,16.594-16.595v-9.08H469.85z"/>
							<path fill="#F5F6F8" d="M522.27,205.463c-10.604,0-19.23-8.626-19.23-19.23v-11.715H541.5v11.715
								C541.5,196.836,532.874,205.463,522.27,205.463z M505.675,177.153v9.08c0,9.151,7.444,16.595,16.595,16.595
								c9.151,0,16.595-7.444,16.595-16.595v-9.08H505.675z"/>
							<path fill="#F5F6F8" d="M558.096,205.463c-10.604,0-19.23-8.626-19.23-19.23v-11.715h38.461v11.715
								C577.326,196.836,568.7,205.463,558.096,205.463z M541.5,177.153v9.08c0,9.151,7.444,16.595,16.595,16.595
								c9.151,0,16.595-7.444,16.595-16.595v-9.08H541.5z"/>
							<path fill="#F5F6F8" d="M593.921,205.463c-10.604,0-19.23-8.626-19.23-19.23v-11.715h38.459v11.715
								C613.151,196.836,604.524,205.463,593.921,205.463z M577.326,177.153v9.08c0,9.151,7.444,16.595,16.595,16.595
								c9.15,0,16.594-7.444,16.594-16.595v-9.08H577.326z"/>
						</g>
						<path fill="#F5F6F8" d="M481.748,224.951h-94.281c-3.451,0-6.258-2.807-6.258-6.258c0-3.451,2.807-6.258,6.258-6.258h94.281
							c3.451,0,6.258,2.807,6.258,6.258C488.006,222.143,485.199,224.951,481.748,224.951z M387.467,215.07
							c-1.998,0-3.623,1.626-3.623,3.623c0,1.997,1.625,3.623,3.623,3.623h94.281c1.998,0,3.623-1.626,3.623-3.623
							c0-1.997-1.625-3.623-3.623-3.623H387.467z"/>
					</g>
					<path fill="#F5F6F8" d="M611.612,63.344H336.705c-0.728,0-1.318-0.59-1.318-1.317V34.799c0-0.728,0.589-1.318,1.318-1.318
						h274.907c0.728,0,1.317,0.59,1.317,1.318v27.228C612.929,62.754,612.34,63.344,611.612,63.344z M338.022,60.709h272.272V36.117
						H338.022V60.709z"/>
				</g>
			</g>
			<rect x="3.819" y="490.304" fill="#D8D8ED" width="488.046" height="2.32"/>
		</g>
		<g>
			<g>
				<defs>
					<path id="SVGID_5_" d="M40.038,492.624h422.986c0.284-1.127,0.531-2.266,0.694-3.427c2.38-17.04-7.506-35.004-2.012-51.124
						c3.437-10.085,12.018-16.578,18.739-24.337c19.48-22.487,23.128-60.016,8.421-86.638c-7.612-13.78-19.178-24.234-28.07-37.024
						c-18.439-26.523-24.233-63.383-14.984-95.323c4.447-15.357,12.037-29.33,17.447-44.298
						c8.337-23.066,21.412-78.645-20.448-110.993c-47.228-36.496-95.998-17.374-120.919-0.451
						C299.283,54.36,208.563,34.415,147.5,58.126c-35.542,13.801-101.574,56.518-72.011,151.395
						c10.459,33.568,4.323,92.006-8.746,109.389C51.618,339.026,9.66,372.945,9.66,418.782
						C9.66,454.836,22.43,489.768,40.038,492.624z"/>
				</defs>
				<clipPath id="SVGID_6_">
					<use xlink:href="#SVGID_5_"  overflow="visible"/>
				</clipPath>
			</g>
		</g>
	</g>
	<g>
		<g>
			<path fill="#353647" d="M194.579,489.366h-93.741c-0.586,0-1.06-0.475-1.06-1.061l0,0c0-0.586,0.475-1.06,1.06-1.06h93.741
				c0.586,0,1.06,0.475,1.06,1.06l0,0C195.639,488.891,195.164,489.366,194.579,489.366z"/>
			<path fill="#353647" d="M387.702,489.366H281.735c-0.586,0-1.061-0.475-1.061-1.061l0,0c0-0.586,0.475-1.06,1.061-1.06h105.967
				c0.586,0,1.06,0.475,1.06,1.06l0,0C388.763,488.891,388.288,489.366,387.702,489.366z"/>
			<path fill="#353647" d="M246.295,489.366h-42.799c-0.586,0-1.061-0.475-1.061-1.061l0,0c0-0.586,0.475-1.06,1.061-1.06h42.799
				c0.586,0,1.061,0.475,1.061,1.06l0,0C247.356,488.891,246.881,489.366,246.295,489.366z"/>
		</g>
		<path fill="#5570B0" d="M175.616,344.444h-6.682c-2.82,0-5.106-2.286-5.106-5.106v-4.73c0-2.82,2.286-5.106,5.106-5.106h6.808
			c2.721,0,4.926,2.206,4.926,4.926v4.963C180.668,342.182,178.406,344.444,175.616,344.444z"/>
		<polygon fill="#5570B0" points="168.934,344.444 166.337,357.27 173.234,357.27 175.616,344.444 		"/>
		<g>
			<path fill="#6B8EDE" d="M146.546,347.641v34.633c9.564,0,17.316-7.753,17.316-17.317
				C163.863,355.393,156.11,347.641,146.546,347.641z"/>
			<path fill="#FFE80F" d="M146.546,379.746L146.546,379.746v-30.594l0,0c-2.28,0-4.129,1.849-4.129,4.129v22.336
				C142.418,377.897,144.266,379.746,146.546,379.746z"/>
		</g>
		<path fill="#5570B0" d="M297.234,386.859l3.396-4.28h59.885v1.719c0,3.739-3.031,6.77-6.77,6.77h-2.771l-7.104,16.471
			l-47.533-12.48L297.234,386.859z"/>
		<g>
			<circle fill="#353647" cx="319.521" cy="459.6" r="28.866"/>
			<circle fill="#A8C3E0" cx="319.521" cy="459.6" r="17.409"/>
			<path opacity="0.2" d="M319.521,472.689c-7.218,0-13.089-5.871-13.089-13.089c0-7.218,5.871-13.089,13.089-13.089
				c7.218,0,13.089,5.871,13.089,13.089C332.61,466.818,326.738,472.689,319.521,472.689z M319.521,448.069
				c-6.358,0-11.531,5.173-11.531,11.531c0,6.358,5.173,11.531,11.531,11.531s11.531-5.173,11.531-11.531
				C331.052,453.242,325.879,448.069,319.521,448.069z"/>
			<circle opacity="0.2" cx="319.521" cy="459.6" r="6.235"/>
		</g>
		<path fill="#353647" d="M249.658,372.682c0,0-6.314,1.427-4.241,10.026c2.073,8.599,45.067,7.524,52.591,0
			c7.524-7.524,2.809-25.485-6.592-25.439c-4.78,0.024-4.873,14.69-17.597,14.69C264.221,371.96,253.302,369.81,249.658,372.682z"/>
		<path fill="#45465C" d="M245.417,382.708c0,0,1.372,5.169,4.597,6.64c3.225,1.471,14.674,5.144,32.768,2.457
			c18.094-2.687,19.278-9.455,18.955-18.054C301.735,373.751,290.28,388.083,245.417,382.708z"/>
		<path fill="#88ABCF" d="M252.129,390.169c0,0,7.184,4.721,9.095,20.725c1.911,16.004-13.457,26.991-21.896,32.246
			c-8.439,5.255-4.856,14.332,2.787,14.571c7.643,0.239,37.501,0,37.501,0s-2.068-19.506,6.927-33.718
			c6.174-9.755,20.469-13.805,33.202-12.144c10.987,1.433,21.497,6.415,25.558,10.134c4.061,3.719,6.743,0.143,5.255-4.88
			c-1.911-6.449-7.644-20.303-29.296-22.271c-18.773-1.706-24.028-7.975-24.028-7.975S269.786,395.48,252.129,390.169z"/>
		<path fill="#6B8EDE" d="M271.258,457.765c0,0-12.184-35.884,13.613-49.021c25.797-13.137,47.533-2.866,55.37,2.234
			c12.017,7.821,18.916,22.906,20.11,27.534c1.194,4.628-4.265,17.87-12.147,18.77C340.321,458.182,271.258,457.765,271.258,457.765
			z"/>
		<path fill="#353647" d="M362.988,387.466h-53.643c-2.699,0-4.887-2.188-4.887-4.887l0,0c0-2.699,2.188-4.887,4.887-4.887h53.643
			c2.699,0,4.887,2.188,4.887,4.887l0,0C367.875,385.278,365.686,387.466,362.988,387.466z"/>
		<path fill="#5570B0" d="M177,369.804l1.529,1.07c2.422,1.695,3.559,4.71,2.837,7.577c-3.224,12.804-10.483,48.333,3.781,63.107
			h58.939l5.572,3.852c0,0-52.204,12.408-70.602,1.433C174.362,444.043,159.708,428.823,177,369.804z"/>
		<path fill="#5570B0" d="M156.067,380.426l-2.223,1.486c-4.772,3.19-8.227,7.999-9.726,13.539l-8.772,32.411
			c0,0,13.376,3.812,18.87,6.439l8.776-44.428L156.067,380.426z"/>
		<path fill="#88ABCF" d="M244.086,446.842c0,0-52.131,10.032-66.104-2.15c-13.973-12.182-7.166-46.936-7.166-46.936l8.957-40.487
			H163.65c0,0-12.133,34.201-17.042,59.285c-0.702,3.587,0.875,7.282,4.019,9.148c9.297,5.517,16.235,14.671,18.942,25.442
			c0.981,3.906,4.475,6.647,8.502,6.655c19.614,0.037,66.929-0.031,66.929-0.031L244.086,446.842z"/>
		<g>
			<path fill="#6B8EDE" d="M362.001,428.314v-24.183c-6.678,0-12.091,5.414-12.091,12.091
				C349.91,422.901,355.323,428.314,362.001,428.314z"/>
			<path fill="#F55C2F" d="M362.001,405.896L362.001,405.896v21.363l0,0c1.592,0,2.883-1.291,2.883-2.883v-15.597
				C364.884,407.187,363.593,405.896,362.001,405.896z"/>
		</g>
		<g>
			<path fill="#EDAC90" d="M192.313,324.128c0,0-9.495-1.971-16.302,0c-6.807,1.971-6.795,12.892,0.723,14.239
				c0,0,1.301,2.452,5.037,2.223c3.735-0.229,11.786-8.661,11.786-8.661L192.313,324.128z"/>
			<path fill="#7481D0" d="M265.225,269.729c0,0,9.375-0.001,15.586,16.002c6.21,16.003,13.615,41.8,7.643,53.027
				c-5.971,11.226-11.465,1.672-16.72,1.433c-5.255-0.239-9.734,3.259-14.66,4.018c-4.926,0.759-11.853,0.043-11.376-7.72
				c0.478-7.763,4.538-20.661,1.911-30.693c-2.627-10.032-4.29-16.926,3.454-26.896
				C257.074,271.161,262.993,269.283,265.225,269.729z"/>
			<path opacity="0.15" d="M273.596,302.747c3.969-16.302-3.393-25.92-9.391-26.544c-3.393-0.353-11.929,10.084-18.705,19.218
				c0.261,3.234,1.114,6.58,2.108,10.375c1.874,7.154,0.348,15.757-0.856,22.924C254.06,324.997,270.526,315.356,273.596,302.747z"
				/>
			<path fill="#EDAC90" d="M247.904,270.748c0,0,2.687,3.88,4.837,7.284c0,0,7.524,0.122,11.465-7.284l-5.033-9.048
				C259.172,261.701,250.77,260.956,247.904,270.748z"/>
			<path fill="#EDAC90" d="M223.42,240.411c-1.481,6.295,2.09,13.854,2.807,17.915c0.717,4.061,1.971,10.152,5.553,13.973
				c3.583,3.822,7.033,3.501,14.57-1.313c8.474-5.413,12.472-9.363,15.44-15.526c3.105-6.449,3.149-26.532-11.857-30.372
				C236.08,221.542,226.287,228.23,223.42,240.411z"/>
			<path fill="#45465C" d="M219.42,245.786c0,0,12.361-3.225,15.944-1.612c3.583,1.612,3.941,8.241,4.12,11.107
				c0.179,2.866,4.479,7.524,11.465,8.42c6.987,0.896,12.868-5.063,15.944-9.989c4.837-7.746,1.839-25.123-10.12-32.776
				c-11.43-7.314-28.575-1.842-35.217,8.209C213.55,241.259,219.42,245.786,219.42,245.786z"/>
			<path opacity="0.6" fill="#6B9EDD" d="M214.104,249.533c0.436-1.619,1.679-2.883,3.296-3.322
				c5.004-1.358,17.241-4.305,26.561-3.47c12.003,1.075,8.957,16.302,0,20.064c-6.534,2.744-15.355,6.06-19.65,7.654
				c-1.766,0.655-3.73,0.175-5.022-1.195c-1.589-1.684-3.578-4.411-4.786-8.347C212.976,255.935,213.45,251.966,214.104,249.533z"/>
			<circle fill="#353647" cx="246.103" cy="250.088" r="2.869"/>
			<path fill="#7481D0" d="M266.837,273.891c-4.733-2.239-12.907,0.256-20.781,10.467c-7.874,10.211-12.363,24.543-12.363,24.543
				s0.213,25.965,15.229,16.481C269.345,312.484,280.631,280.417,266.837,273.891z"/>
			<path fill="#353647" d="M217.263,347.569c0,0-5.722,0.027-8.827,5.282c-3.105,5.255-1.315,14.809,2.448,25.558
				c3.763,10.749,11.167,34.874,11.167,34.874h7.882c0,0-15.287-50.638-15.287-56.371
				C214.646,351.179,217.263,347.569,217.263,347.569z"/>
			<path fill="#45465C" d="M249.658,344.444c0,0-25.157,1.241-30.173,2.435c-5.016,1.194-8.36,4.061-8.599,8.838
				c-0.239,4.777,16.481,57.565,16.481,57.565h10.51c0,0-0.502-8.599,0.931-16.481c1.433-7.882,2.051-18.153-3.62-27.469
				c0,0,21.736,6.449,36.068,4.777c14.332-1.672,25.797-13.137,17.198-35.351c0,0-13.367-4.538-20.418-0.955
				C260.985,341.386,253.653,344.139,249.658,344.444z"/>
			<path fill="#CC8362" d="M224.043,413.282l2.718,12.63c0.365,1.698,1.866,2.91,3.603,2.91l0,0c2.303,0,4.042-2.089,3.625-4.354
				l-2.063-11.186H224.043z"/>
			<path fill="#353647" d="M226.76,425.912c0,0,1.46,4.09,4.685,2.91c1.955-0.715,0.848-5.071,2.605-5.807
				c1.757-0.736,4.382,5.643,5.277,15.496h-41.741c0,0-1.254-3.672,3.941-5.285c5.195-1.612,17.198-3.89,18.989-8.842
				C222.309,419.433,224.942,423.255,226.76,425.912z"/>
			<rect x="197.587" y="438.512" fill="#51516B" width="41.741" height="3.045"/>
			<path fill="#EDAC90" d="M228.8,413.282l2.718,12.63c0.365,1.698,1.866,2.91,3.603,2.91l0,0c2.303,0,4.042-2.089,3.624-4.354
				l-2.063-11.186H228.8z"/>
			<path fill="#45465C" d="M231.518,425.912c0,0,1.46,4.09,4.685,2.91c1.955-0.715,0.848-5.071,2.605-5.807
				c1.757-0.736,4.382,5.643,5.277,15.496h-41.741c0,0-1.254-3.672,3.941-5.285c5.195-1.612,17.198-3.89,18.989-8.842
				C227.067,419.433,229.7,423.255,231.518,425.912z"/>
			<rect x="202.345" y="438.512" fill="#7B7CA3" width="41.741" height="3.045"/>
			<circle fill="#7481D0" cx="179.252" cy="332.916" r="5.451"/>
			<circle fill="#353647" cx="179.251" cy="332.916" r="2.518"/>
			<path fill="#7481D0" d="M233.693,308.901c-10.222,4.127-41.381,15.227-41.381,15.227l1.802,11.307c0,0,35.346,1.072,50.155-7.969
				C257.074,319.649,244.41,304.574,233.693,308.901z"/>
			<path fill="#353647" d="M277.783,356.866c-6.495-1.084-11.74-5.674-13.551-12.027c-0.384-1.346-2.487-0.774-2.101,0.579
				c2.003,7.026,7.846,12.343,15.073,13.549C278.576,359.196,279.166,357.097,277.783,356.866z"/>
		</g>
		<polygon opacity="0.15" points="383.281,377.692 383.652,372.561 302.798,372.561 303.169,377.692 		"/>
		<g>
			<g>
				<polygon fill="#FDD691" points="383.281,377.692 303.169,377.692 298.869,318.167 387.58,318.167 				"/>
				<path fill="#FFC04E" d="M303.169,377.692h80.112l0.086-1.193c-0.254-1.693-0.889-3.336-1.901-4.694
					c-3.158-4.241-8.765-5.999-14.052-6.073c-1.403-0.019-2.891,0.041-4.109-0.657c-1.742-0.998-2.383-3.222-3.917-4.519
					c-1.892-1.6-4.756-1.441-7.048-0.499c-2.292,0.943-4.251,2.538-6.447,3.685c-4.583,2.395-11.278,2.142-13.797-2.373
					c-0.884-1.585-1.315-3.688-2.986-4.397c-0.739-0.314-1.575-0.267-2.376-0.215c-2.912,0.189-5.823,0.378-8.735,0.566
					c-1.207,4.003-3.459,7.685-6.471,10.583c-4.442,4.274-5.181-17.713-5.251-17.856c-1.613-3.26-3.093-2.923-5.158-0.727
					L303.169,377.692z"/>
				<g>
					<rect x="369.178" y="326.033" fill="#FFFFFF" width="12.874" height="12.378"/>
					<g>
						<path fill="#949494" d="M379.43,330.103c-0.416,0-0.827-0.214-1.13-0.425c-0.349-0.243-0.682-0.345-0.869-0.262
							c-0.05,0.022-0.098,0.066-0.158,0.12c-0.104,0.095-0.245,0.224-0.467,0.286c-0.467,0.132-0.832-0.113-1.123-0.31
							c-0.208-0.14-0.384-0.26-0.573-0.247c-0.145,0.012-0.244,0.104-0.407,0.265c-0.199,0.195-0.464,0.437-0.922,0.454
							c-0.068-0.001-0.135-0.023-0.192-0.061c-0.299-0.202-0.624-0.404-1.017-0.459c-0.356-0.051-0.677,0.086-0.718,0.157
							c-0.049,0.19-0.238,0.303-0.433,0.254c-0.191-0.049-0.305-0.248-0.256-0.439c0.136-0.53,0.884-0.765,1.506-0.68
							c0.491,0.069,0.881,0.287,1.212,0.504c0.093-0.025,0.175-0.098,0.318-0.239c0.186-0.183,0.44-0.434,0.851-0.468
							c0.438-0.035,0.764,0.188,1.03,0.366c0.264,0.179,0.397,0.252,0.531,0.214c0.055-0.015,0.099-0.053,0.178-0.125
							c0.087-0.079,0.195-0.178,0.353-0.247c0.582-0.254,1.229,0.097,1.563,0.33c0.357,0.247,0.684,0.348,0.872,0.268
							c0.182-0.076,0.391,0.008,0.468,0.191c0.076,0.182-0.01,0.391-0.191,0.468C379.716,330.078,379.572,330.103,379.43,330.103z"
							/>
						<path fill="#949494" d="M379.43,332.57c-0.416,0-0.827-0.214-1.13-0.425c-0.351-0.244-0.686-0.344-0.869-0.262
							c-0.05,0.022-0.098,0.066-0.159,0.12c-0.103,0.095-0.244,0.224-0.466,0.286c-0.467,0.128-0.832-0.113-1.123-0.31
							c-0.208-0.14-0.384-0.262-0.573-0.247c-0.145,0.012-0.244,0.104-0.407,0.265c-0.199,0.195-0.464,0.446-0.922,0.454
							c-0.068-0.001-0.135-0.023-0.192-0.061c-0.299-0.202-0.624-0.403-1.017-0.459c-0.356-0.05-0.677,0.087-0.718,0.157
							c-0.049,0.19-0.238,0.304-0.433,0.254c-0.191-0.049-0.305-0.248-0.256-0.439c0.136-0.529,0.884-0.768,1.506-0.68
							c0.491,0.069,0.881,0.287,1.212,0.504c0.093-0.025,0.175-0.098,0.318-0.239c0.186-0.183,0.44-0.434,0.851-0.468
							c0.438-0.036,0.764,0.188,1.03,0.366c0.264,0.178,0.397,0.254,0.531,0.214c0.055-0.016,0.099-0.053,0.178-0.125
							c0.087-0.079,0.195-0.178,0.353-0.247c0.582-0.254,1.229,0.097,1.564,0.33c0.356,0.248,0.683,0.349,0.871,0.268
							c0.182-0.075,0.391,0.008,0.468,0.191c0.076,0.182-0.01,0.391-0.191,0.468C379.716,332.545,379.572,332.57,379.43,332.57z"/>
						<path fill="#949494" d="M377.228,334.586c-0.228,0-0.528-0.1-0.891-0.442c-0.216-0.206-0.437-0.311-0.525-0.257
							c-0.03,0.017-0.067,0.064-0.107,0.113c-0.079,0.097-0.186,0.231-0.367,0.3c-0.407,0.153-0.704-0.122-0.923-0.322
							c-0.122-0.112-0.271-0.229-0.347-0.228c-0.074,0.008-0.164,0.128-0.25,0.245c-0.152,0.205-0.341,0.491-0.741,0.475
							c-0.074-0.002-0.144-0.031-0.198-0.081c-0.212-0.195-0.441-0.39-0.706-0.441c-0.129-0.025-0.28,0.004-0.378,0.072
							c-0.031,0.021-0.071,0.056-0.079,0.098c-0.031,0.166-0.19,0.279-0.357,0.244c-0.166-0.031-0.275-0.191-0.244-0.357
							c0.036-0.194,0.156-0.368,0.336-0.491c0.231-0.157,0.551-0.221,0.837-0.167c0.357,0.068,0.64,0.268,0.878,0.477
							c0.045-0.039,0.099-0.109,0.162-0.193c0.141-0.19,0.335-0.451,0.674-0.488c0.358-0.048,0.622,0.195,0.829,0.385
							c0.101,0.093,0.24,0.219,0.291,0.201c0.025-0.01,0.069-0.064,0.107-0.112c0.065-0.081,0.146-0.181,0.27-0.255
							c0.361-0.214,0.806-0.093,1.26,0.337c0.223,0.21,0.436,0.315,0.528,0.261c0.145-0.084,0.333-0.034,0.418,0.113
							c0.083,0.147,0.033,0.334-0.113,0.418C377.508,334.539,377.385,334.586,377.228,334.586z"/>
					</g>
				</g>
			</g>
			<g>
				<polygon fill="#FDD691" points="369.176,318.167 304.684,318.167 301.817,270.701 372.042,270.701 				"/>
				<path fill="#FFC04E" d="M369.52,312.471c-0.436-0.348-0.894-0.666-1.386-0.907c-2.77-1.362-5.995-1.317-9.081-1.244
					c-11.783,0.279-23.566,0.559-35.35,0.838c-2.728,0.065-5.591,0.1-8.011-1.16c-3.581-1.863-5.261-6.063-5.997-10.031
					c-0.549-2.955-2.327-10.743-6.57-7.619l1.559,25.82h64.492L369.52,312.471z"/>
				<g>
					<rect x="339.809" y="276.203" fill="#FFFFFF" width="17.313" height="18.78"/>
					<g>
						<path fill="#949494" d="M353.596,282.378c-0.559,0-1.112-0.324-1.519-0.644c-0.47-0.369-0.917-0.523-1.169-0.398
							c-0.068,0.033-0.132,0.099-0.213,0.182c-0.139,0.144-0.33,0.34-0.629,0.433c-0.629,0.2-1.119-0.171-1.51-0.47
							c-0.28-0.212-0.516-0.394-0.77-0.374c-0.195,0.018-0.329,0.157-0.548,0.402c-0.267,0.296-0.624,0.664-1.24,0.689
							c-0.092-0.002-0.182-0.034-0.258-0.093c-0.402-0.307-0.838-0.612-1.367-0.696c-0.479-0.077-0.911,0.131-0.965,0.238
							c-0.066,0.288-0.32,0.46-0.583,0.385c-0.257-0.074-0.41-0.376-0.344-0.666c0.182-0.804,1.189-1.161,2.025-1.031
							c0.66,0.104,1.186,0.436,1.63,0.764c0.124-0.038,0.235-0.149,0.428-0.363c0.25-0.278,0.591-0.659,1.144-0.71
							c0.589-0.054,1.027,0.285,1.386,0.555c0.355,0.271,0.533,0.383,0.715,0.324c0.074-0.023,0.133-0.081,0.239-0.19
							c0.117-0.12,0.262-0.27,0.475-0.374c0.782-0.385,1.652,0.148,2.102,0.501c0.48,0.375,0.919,0.528,1.172,0.408
							c0.245-0.115,0.526,0.012,0.63,0.289c0.102,0.276-0.013,0.594-0.257,0.71C353.98,282.34,353.787,282.378,353.596,282.378z"/>
						<path fill="#949494" d="M353.596,286.121c-0.559,0-1.112-0.324-1.519-0.644c-0.472-0.37-0.922-0.522-1.169-0.398
							c-0.068,0.033-0.132,0.099-0.214,0.182c-0.138,0.143-0.329,0.339-0.627,0.433c-0.629,0.194-1.119-0.171-1.51-0.47
							c-0.28-0.213-0.516-0.397-0.77-0.374c-0.195,0.018-0.329,0.157-0.548,0.402c-0.267,0.297-0.624,0.677-1.24,0.689
							c-0.092-0.002-0.182-0.035-0.258-0.093c-0.402-0.307-0.838-0.612-1.367-0.696c-0.479-0.077-0.911,0.132-0.965,0.238
							c-0.066,0.289-0.32,0.461-0.583,0.385c-0.257-0.074-0.41-0.376-0.344-0.666c0.182-0.803,1.189-1.165,2.025-1.031
							c0.66,0.104,1.186,0.436,1.63,0.764c0.124-0.038,0.235-0.149,0.428-0.363c0.25-0.278,0.591-0.659,1.144-0.71
							c0.589-0.055,1.027,0.285,1.386,0.555c0.355,0.271,0.533,0.385,0.715,0.324c0.074-0.023,0.133-0.081,0.239-0.19
							c0.117-0.12,0.262-0.27,0.475-0.375c0.782-0.386,1.654,0.147,2.104,0.501c0.479,0.376,0.918,0.53,1.171,0.407
							c0.245-0.115,0.526,0.012,0.63,0.289c0.102,0.276-0.013,0.594-0.257,0.71C353.98,286.083,353.787,286.121,353.596,286.121z"/>
						<path fill="#949494" d="M350.635,289.179c-0.306,0-0.711-0.151-1.198-0.671c-0.291-0.312-0.588-0.472-0.706-0.389
							c-0.04,0.026-0.09,0.097-0.143,0.171c-0.106,0.148-0.25,0.35-0.493,0.455c-0.547,0.232-0.947-0.185-1.241-0.489
							c-0.164-0.169-0.364-0.347-0.467-0.346c-0.1,0.013-0.22,0.195-0.336,0.371c-0.205,0.311-0.459,0.745-0.996,0.72
							c-0.099-0.004-0.194-0.047-0.267-0.123c-0.285-0.297-0.593-0.592-0.949-0.669c-0.173-0.038-0.376,0.007-0.509,0.109
							c-0.042,0.032-0.095,0.085-0.106,0.15c-0.042,0.252-0.255,0.423-0.481,0.37c-0.223-0.047-0.37-0.29-0.328-0.542
							c0.049-0.294,0.209-0.559,0.451-0.745c0.311-0.238,0.741-0.335,1.126-0.254c0.481,0.103,0.86,0.408,1.181,0.723
							c0.061-0.06,0.132-0.165,0.217-0.293c0.19-0.289,0.45-0.684,0.906-0.74c0.481-0.073,0.836,0.296,1.114,0.585
							c0.136,0.14,0.322,0.332,0.392,0.305c0.034-0.015,0.092-0.096,0.143-0.169c0.087-0.122,0.197-0.274,0.363-0.386
							c0.485-0.324,1.084-0.141,1.694,0.512c0.3,0.318,0.587,0.477,0.711,0.396c0.194-0.127,0.447-0.052,0.562,0.171
							c0.112,0.223,0.044,0.507-0.152,0.634C351.011,289.108,350.846,289.179,350.635,289.179z"/>
					</g>
				</g>
			</g>
			<g>
				<g>
					<polygon fill="#FDD691" points="375.471,270.587 310.979,270.587 308.112,223.121 378.337,223.121 					"/>
					<path fill="#FFC04E" d="M366.404,268.217c-8.98,1.786-17.991-2.698-27.084-2.865c-6.629-0.121-14.284,1.649-19.049-4.066
						c-3.309-3.968-5.096-17.793-10.92-17.671l1.629,26.972h64.492l0.144-2.382c-0.645-0.455-1.351-0.787-2.066-0.922
						C371.17,266.833,368.781,267.744,366.404,268.217z"/>
					<polygon opacity="0.15" points="336.225,270.587 375.471,270.587 375.687,267.004 343.391,267.004 343.391,243.245 
						377.122,243.245 377.555,236.08 336.225,236.08 					"/>
					<g>
						<rect x="313.285" y="225.998" fill="#FFFFFF" width="17.313" height="18.78"/>
						<g>
							<path fill="#949494" d="M327.072,232.173c-0.559,0-1.112-0.324-1.519-0.644c-0.47-0.369-0.917-0.523-1.169-0.398
								c-0.068,0.033-0.132,0.099-0.213,0.182c-0.14,0.143-0.33,0.34-0.629,0.433c-0.629,0.2-1.119-0.171-1.51-0.47
								c-0.28-0.212-0.516-0.394-0.77-0.374c-0.195,0.018-0.329,0.157-0.548,0.402c-0.267,0.297-0.624,0.664-1.24,0.689
								c-0.092-0.002-0.182-0.035-0.258-0.093c-0.402-0.307-0.838-0.612-1.367-0.696c-0.479-0.077-0.911,0.131-0.965,0.238
								c-0.066,0.288-0.32,0.46-0.583,0.385c-0.257-0.074-0.41-0.376-0.344-0.666c0.183-0.804,1.189-1.161,2.025-1.031
								c0.66,0.104,1.185,0.436,1.63,0.764c0.124-0.037,0.235-0.149,0.428-0.363c0.25-0.278,0.591-0.659,1.144-0.71
								c0.589-0.054,1.027,0.285,1.386,0.555c0.355,0.271,0.533,0.382,0.715,0.324c0.074-0.024,0.133-0.081,0.239-0.19
								c0.117-0.12,0.262-0.27,0.475-0.375c0.782-0.385,1.652,0.148,2.102,0.501c0.48,0.375,0.919,0.527,1.172,0.407
								c0.245-0.115,0.525,0.013,0.63,0.289c0.102,0.276-0.013,0.594-0.257,0.71C327.456,232.135,327.263,232.173,327.072,232.173z"
								/>
							<path fill="#949494" d="M327.072,235.916c-0.559,0-1.112-0.324-1.519-0.644c-0.472-0.37-0.922-0.522-1.169-0.398
								c-0.068,0.033-0.132,0.099-0.214,0.182c-0.138,0.144-0.329,0.339-0.627,0.433c-0.629,0.194-1.119-0.171-1.51-0.47
								c-0.28-0.213-0.516-0.397-0.77-0.375c-0.195,0.018-0.329,0.157-0.548,0.402c-0.267,0.296-0.624,0.677-1.24,0.689
								c-0.092-0.002-0.182-0.035-0.258-0.093c-0.402-0.307-0.838-0.612-1.367-0.696c-0.479-0.077-0.911,0.132-0.965,0.238
								c-0.066,0.288-0.32,0.461-0.583,0.385c-0.257-0.074-0.41-0.376-0.344-0.666c0.183-0.803,1.189-1.165,2.025-1.031
								c0.66,0.104,1.185,0.436,1.63,0.764c0.124-0.037,0.235-0.149,0.428-0.363c0.25-0.278,0.591-0.659,1.144-0.71
								c0.589-0.055,1.027,0.285,1.386,0.555c0.355,0.271,0.533,0.385,0.715,0.324c0.074-0.024,0.133-0.081,0.239-0.19
								c0.117-0.12,0.262-0.27,0.475-0.374c0.782-0.385,1.654,0.147,2.104,0.501c0.479,0.376,0.918,0.53,1.171,0.407
								c0.245-0.115,0.525,0.013,0.63,0.289c0.102,0.276-0.013,0.594-0.257,0.71C327.456,235.878,327.263,235.916,327.072,235.916z"
								/>
							<path fill="#949494" d="M324.111,238.975c-0.306,0-0.711-0.152-1.198-0.671c-0.291-0.312-0.588-0.472-0.706-0.389
								c-0.04,0.027-0.09,0.097-0.143,0.171c-0.106,0.148-0.25,0.35-0.493,0.455c-0.547,0.233-0.947-0.185-1.241-0.488
								c-0.164-0.169-0.364-0.347-0.467-0.346c-0.1,0.012-0.22,0.195-0.336,0.372c-0.205,0.311-0.459,0.744-0.996,0.72
								c-0.099-0.004-0.194-0.047-0.267-0.123c-0.285-0.296-0.593-0.592-0.949-0.669c-0.173-0.038-0.376,0.007-0.509,0.11
								c-0.042,0.032-0.095,0.085-0.106,0.149c-0.042,0.252-0.255,0.423-0.481,0.37c-0.223-0.047-0.37-0.29-0.328-0.542
								c0.049-0.294,0.209-0.559,0.451-0.745c0.311-0.238,0.741-0.335,1.126-0.254c0.481,0.103,0.86,0.408,1.181,0.723
								c0.061-0.06,0.132-0.165,0.217-0.293c0.19-0.288,0.45-0.684,0.906-0.74c0.481-0.073,0.836,0.296,1.114,0.585
								c0.135,0.141,0.322,0.333,0.392,0.305c0.034-0.015,0.092-0.096,0.143-0.169c0.087-0.122,0.197-0.274,0.362-0.386
								c0.485-0.325,1.084-0.141,1.694,0.512c0.3,0.318,0.587,0.477,0.711,0.396c0.194-0.127,0.447-0.052,0.562,0.171
								c0.112,0.223,0.044,0.507-0.153,0.634C324.487,238.903,324.323,238.975,324.111,238.975z"/>
						</g>
					</g>
				</g>
				<g>
					<rect x="339.809" y="239.663" fill="#FDD691" width="42.995" height="30.924"/>
					<path fill="#FFC04E" d="M382.803,268.913c-0.448-0.218-0.917-0.406-1.381-0.559c-8.256-2.723-16.999-3.965-25.686-3.649
						c-1.975,0.072-3.979,0.22-5.905-0.221c-6.622-1.518-3.236-11.396-10.022-10.287v16.391h42.995V268.913z"/>
					<g>
						<rect x="367.317" y="243.303" fill="#FFFFFF" width="12.874" height="12.378"/>
						<g>
							<path fill="#949494" d="M377.569,247.374c-0.416,0-0.827-0.214-1.13-0.425c-0.349-0.243-0.682-0.345-0.869-0.262
								c-0.05,0.022-0.098,0.065-0.158,0.12c-0.104,0.095-0.245,0.224-0.467,0.286c-0.467,0.132-0.832-0.113-1.123-0.31
								c-0.208-0.14-0.384-0.26-0.573-0.247c-0.145,0.012-0.244,0.104-0.407,0.265c-0.199,0.195-0.464,0.437-0.922,0.454
								c-0.068-0.001-0.135-0.023-0.192-0.061c-0.299-0.202-0.624-0.403-1.017-0.459c-0.356-0.051-0.677,0.086-0.718,0.157
								c-0.049,0.19-0.238,0.304-0.434,0.254c-0.191-0.049-0.305-0.248-0.256-0.439c0.136-0.53,0.884-0.765,1.506-0.68
								c0.491,0.069,0.882,0.287,1.212,0.504c0.093-0.025,0.175-0.098,0.318-0.239c0.186-0.183,0.44-0.434,0.851-0.468
								c0.438-0.035,0.764,0.188,1.03,0.366c0.264,0.179,0.396,0.252,0.531,0.214c0.055-0.016,0.099-0.053,0.177-0.125
								c0.087-0.079,0.195-0.178,0.353-0.247c0.582-0.254,1.229,0.097,1.563,0.33c0.357,0.247,0.684,0.348,0.872,0.269
								c0.182-0.076,0.391,0.008,0.468,0.191c0.075,0.182-0.01,0.391-0.191,0.468C377.855,247.348,377.712,247.374,377.569,247.374z
								"/>
							<path fill="#949494" d="M377.569,249.841c-0.416,0-0.827-0.214-1.13-0.425c-0.351-0.244-0.686-0.344-0.869-0.262
								c-0.05,0.022-0.098,0.065-0.159,0.12c-0.103,0.095-0.244,0.224-0.467,0.286c-0.467,0.128-0.832-0.113-1.123-0.31
								c-0.208-0.14-0.384-0.262-0.573-0.247c-0.145,0.012-0.244,0.104-0.407,0.265c-0.199,0.195-0.464,0.446-0.922,0.454
								c-0.068-0.001-0.135-0.023-0.192-0.061c-0.299-0.202-0.624-0.403-1.017-0.459c-0.356-0.05-0.677,0.087-0.718,0.157
								c-0.049,0.19-0.238,0.304-0.434,0.254c-0.191-0.049-0.305-0.248-0.256-0.439c0.136-0.529,0.884-0.768,1.506-0.68
								c0.491,0.069,0.882,0.287,1.212,0.504c0.093-0.025,0.175-0.098,0.318-0.239c0.186-0.183,0.44-0.434,0.851-0.468
								c0.438-0.036,0.764,0.188,1.03,0.366c0.264,0.179,0.396,0.254,0.531,0.214c0.055-0.015,0.099-0.053,0.177-0.125
								c0.087-0.079,0.195-0.178,0.353-0.247c0.582-0.254,1.23,0.097,1.564,0.33c0.356,0.248,0.683,0.349,0.871,0.269
								c0.182-0.076,0.391,0.008,0.468,0.191c0.075,0.182-0.01,0.391-0.191,0.468C377.855,249.815,377.712,249.841,377.569,249.841z
								"/>
							<path fill="#949494" d="M375.368,251.856c-0.228,0-0.528-0.1-0.891-0.442c-0.216-0.206-0.437-0.311-0.525-0.257
								c-0.03,0.018-0.067,0.064-0.107,0.113c-0.079,0.098-0.186,0.231-0.367,0.3c-0.407,0.153-0.705-0.122-0.923-0.322
								c-0.122-0.112-0.271-0.229-0.347-0.228c-0.074,0.008-0.164,0.128-0.25,0.245c-0.152,0.205-0.341,0.491-0.741,0.475
								c-0.074-0.002-0.144-0.031-0.198-0.081c-0.212-0.195-0.441-0.39-0.706-0.441c-0.129-0.025-0.28,0.004-0.378,0.072
								c-0.032,0.021-0.071,0.056-0.079,0.098c-0.031,0.166-0.19,0.279-0.357,0.244c-0.166-0.031-0.275-0.191-0.244-0.357
								c0.036-0.194,0.156-0.369,0.336-0.491c0.231-0.157,0.551-0.221,0.837-0.167c0.357,0.068,0.639,0.269,0.878,0.477
								c0.045-0.039,0.098-0.109,0.161-0.193c0.141-0.19,0.335-0.45,0.674-0.488c0.358-0.048,0.622,0.195,0.829,0.385
								c0.101,0.093,0.24,0.219,0.291,0.201c0.025-0.01,0.069-0.064,0.107-0.111c0.065-0.081,0.146-0.181,0.269-0.255
								c0.361-0.214,0.806-0.093,1.26,0.337c0.223,0.21,0.436,0.315,0.528,0.261c0.145-0.084,0.333-0.034,0.418,0.113
								c0.083,0.147,0.033,0.334-0.113,0.418C375.647,251.809,375.525,251.856,375.368,251.856z"/>
						</g>
					</g>
				</g>
			</g>
			<g>
				<polygon fill="#FDD691" points="374.204,223.121 317.315,223.121 314.449,176.811 374.204,176.811 				"/>
				<path fill="#FFC04E" d="M374.204,219.376c-1.197-0.7-2.778-0.915-4.212-1.023c-11.311-0.855-22.623-1.71-33.934-2.566
					c-1.381-0.104-2.798-0.218-4.049-0.812c-1.53-0.726-2.651-2.092-4.045-3.054c-1.394-0.962-3.422-1.449-4.703-0.341
					c2.817-2.435-4.716-12.441-7.123-13.216c-0.13-0.042-0.237-0.049-0.361-0.081l1.537,24.838h56.889V219.376z"/>
				<polygon opacity="0.15" points="317.115,219.898 317.315,223.121 374.204,223.121 374.204,219.898 				"/>
				<g>
					<rect x="350.939" y="181.84" fill="#FFFFFF" width="18.581" height="17.864"/>
					<g>
						<path fill="#949494" d="M365.735,187.714c-0.6,0-1.194-0.309-1.631-0.613c-0.504-0.351-0.984-0.497-1.254-0.378
							c-0.073,0.031-0.141,0.094-0.228,0.173c-0.15,0.136-0.354,0.323-0.675,0.412c-0.675,0.19-1.201-0.163-1.621-0.447
							c-0.301-0.202-0.554-0.375-0.826-0.356c-0.209,0.017-0.353,0.15-0.588,0.382c-0.287,0.282-0.67,0.631-1.33,0.656
							c-0.099-0.002-0.195-0.033-0.277-0.088c-0.432-0.292-0.9-0.582-1.467-0.662c-0.514-0.073-0.978,0.125-1.036,0.227
							c-0.071,0.274-0.344,0.438-0.626,0.366c-0.276-0.071-0.44-0.358-0.37-0.633c0.196-0.765,1.276-1.104,2.174-0.981
							c0.708,0.099,1.272,0.414,1.749,0.727c0.134-0.036,0.252-0.142,0.459-0.345c0.268-0.265,0.635-0.627,1.228-0.675
							c0.632-0.051,1.102,0.271,1.487,0.528c0.381,0.257,0.572,0.364,0.767,0.309c0.08-0.022,0.143-0.077,0.256-0.18
							c0.126-0.114,0.281-0.257,0.509-0.356c0.84-0.366,1.773,0.141,2.256,0.476c0.515,0.357,0.987,0.502,1.258,0.388
							c0.263-0.109,0.564,0.012,0.676,0.275c0.109,0.262-0.014,0.565-0.276,0.675C366.148,187.678,365.941,187.714,365.735,187.714z
							"/>
						<path fill="#949494" d="M365.735,191.275c-0.6,0-1.194-0.309-1.631-0.613c-0.507-0.352-0.99-0.497-1.254-0.379
							c-0.073,0.032-0.141,0.095-0.23,0.173c-0.148,0.137-0.353,0.323-0.673,0.412c-0.675,0.185-1.201-0.163-1.621-0.447
							c-0.301-0.202-0.554-0.378-0.826-0.356c-0.209,0.017-0.353,0.15-0.588,0.382c-0.287,0.282-0.67,0.644-1.33,0.656
							c-0.099-0.002-0.195-0.033-0.277-0.088c-0.432-0.292-0.9-0.582-1.467-0.662c-0.514-0.073-0.978,0.125-1.036,0.227
							c-0.071,0.274-0.344,0.439-0.626,0.366c-0.276-0.071-0.44-0.358-0.37-0.633c0.196-0.764,1.276-1.108,2.174-0.981
							c0.708,0.099,1.272,0.414,1.749,0.727c0.134-0.036,0.252-0.141,0.459-0.345c0.268-0.264,0.635-0.627,1.228-0.675
							c0.632-0.052,1.102,0.272,1.487,0.528c0.381,0.257,0.572,0.367,0.767,0.309c0.08-0.022,0.143-0.077,0.256-0.181
							c0.126-0.114,0.281-0.257,0.509-0.356c0.84-0.367,1.775,0.14,2.258,0.476c0.514,0.358,0.985,0.504,1.257,0.388
							c0.263-0.109,0.564,0.012,0.676,0.275c0.109,0.262-0.014,0.565-0.276,0.675C366.148,191.238,365.941,191.275,365.735,191.275z
							"/>
						<path fill="#949494" d="M362.558,194.183c-0.329,0-0.763-0.144-1.286-0.638c-0.312-0.297-0.631-0.449-0.757-0.37
							c-0.043,0.025-0.096,0.092-0.154,0.163c-0.113,0.141-0.269,0.333-0.529,0.432c-0.587,0.221-1.017-0.176-1.332-0.465
							c-0.176-0.161-0.39-0.33-0.501-0.33c-0.107,0.012-0.237,0.185-0.361,0.353c-0.22,0.296-0.493,0.708-1.069,0.685
							c-0.107-0.003-0.208-0.045-0.286-0.117c-0.306-0.282-0.636-0.563-1.019-0.636c-0.186-0.036-0.404,0.006-0.546,0.104
							c-0.045,0.031-0.102,0.08-0.114,0.142c-0.045,0.24-0.274,0.402-0.516,0.352c-0.239-0.045-0.397-0.276-0.352-0.516
							c0.052-0.28,0.225-0.532,0.484-0.709c0.334-0.227,0.796-0.319,1.209-0.241c0.516,0.098,0.923,0.388,1.267,0.688
							c0.065-0.057,0.142-0.157,0.233-0.279c0.204-0.274,0.483-0.65,0.973-0.704c0.516-0.069,0.897,0.282,1.196,0.556
							c0.145,0.134,0.346,0.316,0.42,0.29c0.037-0.014,0.099-0.092,0.154-0.161c0.094-0.116,0.211-0.261,0.389-0.368
							c0.521-0.309,1.163-0.134,1.818,0.487c0.322,0.303,0.63,0.454,0.763,0.376c0.208-0.121,0.48-0.05,0.603,0.162
							c0.12,0.212,0.048,0.482-0.164,0.603C362.961,194.116,362.785,194.183,362.558,194.183z"/>
					</g>
				</g>
			</g>
			<polygon opacity="0.15" points="304.5,315.123 304.684,318.167 369.176,318.167 369.36,315.123 			"/>
			<rect x="319.521" y="270.587" fill="#805529" width="6.235" height="107.105"/>
			<rect x="354.28" y="239.663" fill="#805529" width="6.235" height="138.03"/>
			<rect x="328.425" y="176.811" fill="#805529" width="6.307" height="93.889"/>
		</g>
		<g>
			<g>
				<path fill="#353647" d="M135.817,422.124h-24.962c-1.903,0-3.568-1.352-3.958-3.214l-6.873-32.772h43.478l-3.401,32.131
					C139.869,420.467,138.027,422.124,135.817,422.124z M101.789,387.572l6.51,31.045c0.252,1.202,1.327,2.075,2.556,2.075h24.962
					c1.475,0,2.704-1.106,2.859-2.572l3.233-30.547H101.789z"/>
				<path fill="#353647" d="M144.798,388.345H97.272c-0.609,0-1.103-0.494-1.103-1.103l0,0c0-0.609,0.494-1.103,1.103-1.103h47.526
					c0.609,0,1.103,0.494,1.103,1.103l0,0C145.902,387.851,145.408,388.345,144.798,388.345z"/>
				
					<rect x="93.592" y="403.608" transform="matrix(0.1453 0.9894 -0.9894 0.1453 494.7916 235.9106)" fill="#353647" width="34.533" height="1.433"/>
				
					<rect x="100.653" y="403.608" transform="matrix(0.0471 0.9989 -0.9989 0.0471 516.0798 267.6412)" fill="#353647" width="34.204" height="1.433"/>
				<rect x="124.653" y="387.241" fill="#353647" width="1.433" height="34.166"/>
				
					<rect x="132.511" y="387.197" transform="matrix(0.9974 0.0723 -0.0723 0.9974 29.5637 -8.5697)" fill="#353647" width="1.433" height="34.255"/>
				<rect x="102.34" y="392.972" fill="#353647" width="39.543" height="1.433"/>
				<rect x="104.166" y="401.681" fill="#353647" width="36.997" height="1.433"/>
				<rect x="105.305" y="411.096" fill="#353647" width="34.891" height="1.433"/>
			</g>
		</g>
		<path fill="#6B8EDE" d="M204.27,453.859c-13.777,0.001-26.125-2.633-31.846-10.635c-13.692-19.152-0.378-68.893,3.828-83.088
			h-15.828c-1.583,0-2.866-1.283-2.866-2.866c0-1.583,1.283-2.866,2.866-2.866h19.706c0.917,0,1.778,0.439,2.317,1.179
			c0.54,0.741,0.692,1.696,0.411,2.568c-0.2,0.619-19.808,62.104-5.77,81.74c11.369,15.905,63.918,4.612,83.205-1.082
			c1.52-0.448,3.113,0.42,3.56,1.937c0.449,1.519-0.419,3.113-1.937,3.561C257.136,445.718,228.496,453.859,204.27,453.859z"/>
		<g>
			<circle fill="#353647" cx="134.124" cy="459.6" r="28.866"/>
			<circle fill="#A8C3E0" cx="134.124" cy="459.6" r="17.409"/>
			<path opacity="0.2" d="M134.124,472.689c-7.218,0-13.089-5.871-13.089-13.089c0-7.218,5.871-13.089,13.089-13.089
				c7.218,0,13.089,5.871,13.089,13.089C147.213,466.818,141.341,472.689,134.124,472.689z M134.124,448.069
				c-6.358,0-11.531,5.173-11.531,11.531c0,6.358,5.173,11.531,11.531,11.531c6.358,0,11.531-5.173,11.531-11.531
				C145.655,453.242,140.482,448.069,134.124,448.069z"/>
			<circle opacity="0.2" cx="134.124" cy="459.6" r="6.235"/>
		</g>
		<g>
			<path fill="#88ABCF" d="M134.111,426.43c-10.513,0-19.884,4.872-25.993,12.476c0.997,2.369,5.822,12.595,14.845,12.595
				c0.127,0.001,0.254-0.001,0.381-0.001c12.019,0,19.155,4.549,24.898,8.209c5.984,3.814,10.307,6.564,18.435,4.523
				c0.156-0.04,0.312-0.056,0.467-0.07c0.19-1.441,0.298-2.907,0.298-4.4C167.443,441.353,152.52,426.43,134.111,426.43z"/>
			<path fill="#6B8EDE" d="M160.898,468.151c-6.691,0-11.421-3.015-16.031-5.952c-5.511-3.514-11.171-7.132-21.378-7.08
				c-0.038,0-0.076,0-0.115,0c-13.885,0-19.737-15.801-19.98-16.475c-0.53-1.472,0.241-3.091,1.723-3.618
				c1.476-0.526,3.107,0.238,3.64,1.706l0,0c0.047,0.128,4.76,12.728,14.623,12.728c0.124,0.001,0.247-0.001,0.37-0.001
				c11.679,0,18.613,4.42,24.194,7.977c5.815,3.706,10.015,6.378,17.913,4.395c1.529-0.387,3.074,0.532,3.461,2.048
				c0.386,1.514-0.537,3.053-2.062,3.438C164.943,467.898,162.838,468.151,160.898,468.151z"/>
		</g>
		<path fill="#5570B0" d="M146.796,365.914v-17.289c-6.014,0.295-11.092,4.125-13.2,9.458L146.796,365.914z"/>
		<g>
			<path opacity="0.15" d="M331.491,424.393h-36.41c-0.944,0-1.71-0.765-1.71-1.71l0,0c0-0.944,0.766-1.71,1.71-1.71h36.41
				c0.944,0,1.71,0.766,1.71,1.71l0,0C333.201,423.627,332.436,424.393,331.491,424.393z"/>
			<path opacity="0.15" d="M331.491,431.958h-36.41c-0.944,0-1.71-0.765-1.71-1.71l0,0c0-0.944,0.766-1.71,1.71-1.71h36.41
				c0.944,0,1.71,0.766,1.71,1.71l0,0C333.201,431.192,332.436,431.958,331.491,431.958z"/>
			<path opacity="0.15" d="M331.491,439.523h-36.41c-0.944,0-1.71-0.766-1.71-1.71l0,0c0-0.944,0.766-1.71,1.71-1.71h36.41
				c0.944,0,1.71,0.766,1.71,1.71l0,0C333.201,438.757,332.436,439.523,331.491,439.523z"/>
		</g>
		<path fill="#FDD691" d="M415.901,322.865h-42.799c-0.586,0-1.061-0.475-1.061-1.061l0,0c0-0.586,0.475-1.061,1.061-1.061h42.799
			c0.586,0,1.061,0.475,1.061,1.061l0,0C416.962,322.39,416.487,322.865,415.901,322.865z"/>
		<path fill="#6B8EDE" d="M395.153,452.434h-42.799c-0.586,0-1.061-0.475-1.061-1.06l0,0c0-0.586,0.475-1.061,1.061-1.061h42.799
			c0.586,0,1.061,0.475,1.061,1.061l0,0C396.214,451.96,395.739,452.434,395.153,452.434z"/>
		<path fill="#6B8EDE" d="M415.901,444.313h-42.799c-0.586,0-1.061-0.475-1.061-1.061l0,0c0-0.586,0.475-1.061,1.061-1.061h42.799
			c0.586,0,1.061,0.475,1.061,1.061l0,0C416.962,443.838,416.487,444.313,415.901,444.313z"/>
		<path fill="#FDD691" d="M399.736,178.891h-42.799c-0.586,0-1.061-0.475-1.061-1.061l0,0c0-0.586,0.475-1.061,1.061-1.061h42.799
			c0.586,0,1.061,0.475,1.061,1.061l0,0C400.797,178.416,400.322,178.891,399.736,178.891z"/>
		<path fill="#FDD691" d="M422.196,188.775h-42.799c-0.586,0-1.061-0.475-1.061-1.06l0,0c0-0.586,0.475-1.061,1.061-1.061h42.799
			c0.586,0,1.061,0.475,1.061,1.061l0,0C423.257,188.3,422.782,188.775,422.196,188.775z"/>
		<path fill="#FDD691" d="M408.98,275.97h-42.799c-0.586,0-1.061-0.475-1.061-1.061l0,0c0-0.586,0.475-1.061,1.061-1.061h42.799
			c0.586,0,1.061,0.475,1.061,1.061l0,0C410.04,275.496,409.566,275.97,408.98,275.97z"/>
		<path fill="#FDD691" d="M425.911,286.003h-42.799c-0.586,0-1.061-0.475-1.061-1.061l0,0c0-0.586,0.475-1.06,1.061-1.06h42.799
			c0.586,0,1.061,0.475,1.061,1.06l0,0C426.972,285.528,426.497,286.003,425.911,286.003z"/>
	</g>
</g>
</svg>
