<?xml version="1.0" encoding="utf-8"?>
<!-- Generator: Adobe Illustrator 17.0.0, SVG Export Plug-In . SVG Version: 6.00 Build 0)  -->
<!DOCTYPE svg PUBLIC "-//W3C//DTD SVG 1.1//EN" "http://www.w3.org/Graphics/SVG/1.1/DTD/svg11.dtd">
<svg version="1.1" id="Objects" xmlns="http://www.w3.org/2000/svg" xmlns:xlink="http://www.w3.org/1999/xlink" x="0px" y="0px"
	 width="500px" height="381px" viewBox="0 0 500 381" enable-background="new 0 0 500 381" xml:space="preserve">
<g id="Objects">
	<g>
		<g>
			<g>
				<defs>
					<path id="SVGID_1_" d="M499.786,3.949v403.923c0,2.66-2.165,4.825-4.825,4.825h-610.709c-2.661,0-4.825-2.165-4.825-4.825
						V3.949c0-2.661,2.164-4.825,4.825-4.825h610.709C497.621-0.876,499.786,1.288,499.786,3.949z"/>
				</defs>
				<clipPath id="SVGID_2_">
					<use xlink:href="#SVGID_1_"  overflow="visible"/>
				</clipPath>
			</g>
			<g>
				<g>
					<defs>
						<path id="SVGID_3_" d="M451.459,326.086c-0.066-0.78-0.287-1.396-0.603-1.874c0.082-0.168,0.035-0.384-0.265-0.697
							c-4.41-4.596-14.972-36.32-25.322-44.646c-0.019-0.323-0.038-0.646-0.071-0.99c-0.629-6.369-2.103-31.893-2.48-36.289
							c0.176-3.044,0.069-6.897-0.707-11.581c-2.581-9.646-3.523-33.137-1.757-47.919c0.053-0.441,0.097-0.883,0.129-1.325
							c0.248-3.3-0.009-6.974-1.98-9.762c-0.35-0.497-0.759-0.917-1.19-1.304c-0.128-0.117-0.26-0.226-0.397-0.327
							c-2.291-1.803-5.43-2.338-8.349-2.314c-0.298,0.003-0.592,0.032-0.887,0.045c-0.788-1.91-1.698-3.937-2.505-5.68
							c0.648-1.281,0.832-2.403,0.727-4.138c0.848-0.43,1.606-1.747,1.852-3.401c0.316-2.126-0.329-3.984-1.443-4.149
							c-0.153-0.024-0.31-0.005-0.463,0.036c0.061-1.435-0.645-3.003-1.978-5.437c-0.954-1.743-1.9-2.33-2.877-2.251
							c1.136-3.836-11.276-1.263-12.508-1.444c-2.464-0.362-0.623-1.514-3.386-0.833c-4.317,1.489-3.621,7.043-0.728,8.406
							c-0.913,2.042,0.704,4.602,1.941,6.147c0.965,4.403,2.453,8.023,3.415,9.757c1.224,2.206,4.083,4.709,6.944,4.009
							c0.187-0.046,0.382-0.112,0.573-0.17c0.114,0.32,0.229,0.653,0.342,0.99c-1.908,0.553-3.757,1.268-5.411,2.356
							c-2.726,1.794-5.023,4.713-5.73,7.933c-0.736,3.351-0.732,6.75-0.436,10.156c0.083,0.952,0.167,1.912,0.252,2.876
							c-0.09,1.458-0.182,2.917-0.273,4.375c-3.518,1.867-7.899,4.303-13.278,6.49c-0.354-0.215-0.782-0.296-1.299-0.133
							c-1.27,0.401-6.041,1.621-7.301,3.15c-0.039,0.018-0.074,0.033-0.114,0.052c-0.707,0.329-4.89,2.295-4.529,2.956
							c0.549,1.006,3.362-0.171,5.226-0.944c0.011-0.004,0.022-0.011,0.032-0.016c2.018,1.836,3.98,1.952,5.63,1.506
							c1.177-0.316,1.949-0.662,2.473-1.068c2.351,0.525,5.085-0.594,10.646-2.083c0.583-0.156,1.169-0.313,1.754-0.469
							c-0.129,1.043-0.334,2.071-0.755,2.859c-0.234,0.438-0.57,0.812-0.893,1.187c-2.845,3.312-4.676,7.131-6.571,11.02
							c-1.432,2.943-2.637,6.71-4.797,9.219c-0.199,0.232-0.315,0.482-0.393,0.732c-1.59,0.361-3.381,0.754-4.498,0.929
							c-1.537,0.238-1.115,3.761-0.23,4.331c1.315,0.849,5.806,1.575,6.784-0.172c0.977-1.746,2.85-1.342,3.199-3.106
							c0.085-0.431,0.088-0.833,0.004-1.186c1.403-0.825,2.966-2.229,5.37-5.015c2.153-2.493,4.172-5.081,6.201-7.666
							c0.516,5.761,0.859,9.559,0.859,9.559s-1.322,8.111-1.844,17.811c-0.874,9.322-2.299,24.93-2.857,29.709
							c-0.097,0.836-0.141,1.599-0.148,2.307c-0.004,0.058-0.011,0.109-0.013,0.167c-0.455,8.845,0.874,28.69,4.931,49.07
							c0,0-0.343,0.711-0.324,1.13c-0.767,0.775-2.318,1.894-4.296,2.658c-2.507,0.969-7.756,1.27-4.886,2.314
							c2.869,1.045,6.278,0.607,8.004,0.407c1.725-0.201,3.39-0.174,5.415-0.11c2.667,0.085,2.693-0.073,2.445-2.986
							c-0.012-0.132-0.039-0.25-0.059-0.376c0.012,0.011,0.026,0.017,0.038,0.027c-0.689-10.915,4.541-35.988,1.877-50.283
							c2.767-7.956,5.545-19.742,7.36-28.102c0.964,7.736,5.656,21.653,8.223,31.229c0.291,1.084,1.366,2.208,2.761,3.009
							c0.514,0.715,1.096,1.44,1.818,2.182c7.368,7.561,19.081,29.47,26.508,37.981c-0.66,1.236-1.601,2.561-2.932,3.075
							c-2.507,0.968-6.959,2.094-4.09,3.14c2.87,1.045,6.279,0.607,8.004,0.407c1.725-0.201,2.135-2.322,3.937-3.248
							C452.065,328.855,451.708,328.999,451.459,326.086z"/>
					</defs>
					<clipPath id="SVGID_4_">
						<use xlink:href="#SVGID_3_"  overflow="visible"/>
					</clipPath>
				</g>
			</g>
			<g>
				<g>
					<defs>
						<path id="SVGID_5_" d="M353.081,238.726c-0.594-6.914-1.253-9.719-1.675-11.742c-0.261-1.255-0.816-2.094-1.481-2.601
							c-1.61-1.688-4.32-2.383-7.188-2.598c-0.032-0.88-0.071-1.764-0.115-2.623c2.769-1.15,6.863-3.376,7.39-6.681
							c0.786-4.931-1.878-22.83-18.665-19.652c-0.128,0.023-0.256,0.05-0.385,0.079c-0.269,0.055-0.533,0.1-0.81,0.166l0.042,0.041
							c-1.14,0.353-2.224,0.946-3.196,1.813c-1.595,0.91-3.381,3.346-3.806,4.76c-0.498,1.657-0.118,4.297,0.287,5.574
							c1.127,6.737,2.263,16.164,1.808,18.08c0,0,3.052-0.858,5.785-2.551c1.022,0.534,2.146,0.8,3.286,0.547
							c0.378-0.084,0.77-0.198,1.169-0.331c-0.004,0.306-0.011,0.617-0.019,0.933c-0.657,0.054-1.272,0.109-1.799,0.151
							c-0.91,0.074-1.824,0.157-2.71,0.38c-1.667,0.419-3.387,1.369-4.46,2.736c-1.112,1.414-1.655,3.215-2.328,4.856
							c-1.088,2.651-2.374,4.289-3.348,5.802h-20.383c-1.874,0-3.096,1.968-2.266,3.648l0.16,0.324
							c0.015,0.031,0.017,0.063,0.034,0.096l2.042,4.13c-0.52,0.031-0.893,0.214-0.965,0.459c-0.238,0.812-0.245,3.087,0.708,3.934
							c0.281,0.25,0.625,0.443,0.983,0.607c0.032,0.152,0.071,0.301,0.136,0.431c0.408,0.814,1.155,0.975,2.48,1.325l1.055,2.135
							c0.415,0.837,1.267,1.366,2.201,1.366h0.059h4.752c4.067,1.998,6.299,2.715,10.003,3.617
							c-0.475,7.036-2.299,14.098-3.232,18.767c-9.196-6.608-22.534-16.159-25.759-18.649c-4.089-3.156-6.888-3.604-8.657-2.781
							c-3.247,0.617-5.034,4.161-1.675,8.966c5.628,8.049,12.846,14.579,22.88,30.695c-0.727,0.603-1.708,1.261-2.868,1.778
							c-2.205,0.986-6.881,1.447-4.284,2.314c0.792,0.265,1.621,0.39,2.437,0.443c-3.434,1.925-6.488,3.639-8.689,4.832
							c-0.664,0.359-1.251,1.054-1.679,1.906c-0.464,0.541-0.915,1.169-1.345,1.902c-4.938,8.465-20.557,31.423-25.938,38.401
							c-1.011,0.149-2.588,0.156-4.266-0.236c-2.352-0.549-6.354-3.009-4.812-0.747c1.544,2.262,4.273,3.674,5.644,4.405
							c1.369,0.732,2.574,1.603,4.023,2.69c1.908,1.428,2.011,1.323,3.383-1.014c0.384-0.654,0.565-1.303,0.604-1.917
							c0.153,0.074,0.351,0.028,0.642-0.256c4.51-4.408,26.618-26.201,31.079-36.742c0.221-0.071,0.436-0.136,0.666-0.217
							c5.723-2.015,37.827-11.083,40.877-12.147c1.52-0.53,3.052-1.247,4.334-2.247c2.452-1.426,5.213-5.596,2.001-17.769
							c-0.073-0.683-1.628-7.067-1.811-7.857c-0.482-2.089-0.899-4.195-1.189-6.321c-0.464-3.426-0.609-6.982-0.07-10.408
							c0.985,0.821,2.068,1.655,3.401,2.664c1.583,1.198,3.558,0.837,4.661-0.264c0.345-0.268,0.603-0.611,0.708-1.039
							C353.451,254.937,354.054,250.059,353.081,238.726z M345.601,247.977c0.028,0.184,0.058,0.373,0.085,0.552
							c-0.062-0.049-0.12-0.094-0.183-0.141C345.532,248.25,345.57,248.114,345.601,247.977z M313.009,292.654
							c-0.548,0.297-1.1,0.598-1.652,0.901c-0.792-1.357-1.558-2.754-2.299-4.189c0.464,0.424,0.894,0.813,1.282,1.162
							C311.235,291.332,312.126,292.022,313.009,292.654z"/>
					</defs>
					<clipPath id="SVGID_6_">
						<use xlink:href="#SVGID_5_"  overflow="visible"/>
					</clipPath>
				</g>
			</g>
		</g>
	</g>
	<g>
		<g>
			<path display="none" fill="#FFFFFF" d="M499.786,3.949v403.923c0,2.66-2.165,4.825-4.825,4.825h-610.709
				c-2.661,0-4.825-2.165-4.825-4.825V3.949c0-2.661,2.164-4.825,4.825-4.825h610.709C497.621-0.876,499.786,1.288,499.786,3.949z"
				/>
			<g>
				<defs>
					<path id="SVGID_7_" d="M499.786,3.949v403.923c0,2.66-2.165,4.825-4.825,4.825h-610.709c-2.661,0-4.825-2.165-4.825-4.825
						V3.949c0-2.661,2.164-4.825,4.825-4.825h610.709C497.621-0.876,499.786,1.288,499.786,3.949z"/>
				</defs>
				<clipPath id="SVGID_8_">
					<use xlink:href="#SVGID_7_"  overflow="visible"/>
				</clipPath>
			</g>
			<g>
				
					<linearGradient id="SVGID_9_" gradientUnits="userSpaceOnUse" x1="326.7229" y1="273.2989" x2="326.7229" y2="31.68" gradientTransform="matrix(0.9781 -0.208 0.208 0.9781 -35.2639 74.2152)">
					<stop  offset="0" style="stop-color:#2C27CE"/>
					<stop  offset="1" style="stop-color:#EF1D68"/>
				</linearGradient>
				<path fill="url(#SVGID_9_)" d="M355.759,105.841l-5.294-24.893l-2.64-12.419c-0.598-2.808-3.362-4.615-6.17-4.018
					l-87.451,18.595c-2.807,0.597-4.597,3.373-4.001,6.181l2.641,12.419l32.788,154.203c0.598,2.807,3.359,4.6,6.167,4.004
					l87.449-18.596c2.808-0.596,4.602-3.359,4.005-6.166l-22.018-103.546c0.763-0.468,1.191-1.374,0.995-2.3l-4.628-21.768
					C357.406,106.611,356.646,105.958,355.759,105.841z"/>
				<g>
					<g>
						<g>
							<path fill="#E3FFF0" d="M334.594,246.241L334.594,246.241c-2.643,0.561-5.24-1.125-5.801-3.767l0,0
								c-0.561-2.641,1.124-5.238,3.767-5.801l0,0c2.641-0.561,5.238,1.125,5.801,3.767l0,0
								C338.922,243.082,337.235,245.679,334.594,246.241z"/>
						</g>
					</g>
					<g>
						<g>
							<path fill="#E3FFF0" d="M282.503,88.12L282.503,88.12c-1.073,0.229-2.129-0.456-2.357-1.53l0,0
								c-0.227-1.074,0.458-2.129,1.531-2.357l0,0c1.074-0.228,2.13,0.457,2.357,1.531l0,0
								C284.262,86.837,283.577,87.892,282.503,88.12z"/>
						</g>
					</g>
					<path fill="#E3FFF0" d="M309.726,81.048l-19.339,4.112c-0.396,0.084-0.783-0.168-0.868-0.564
						c-0.084-0.396,0.168-0.785,0.564-0.868l19.338-4.112c0.396-0.084,0.785,0.168,0.868,0.564
						C310.373,80.575,310.12,80.964,309.726,81.048z"/>
					
						<linearGradient id="SVGID_10_" gradientUnits="userSpaceOnUse" x1="325.9938" y1="297.4854" x2="325.9938" y2="98.6578" gradientTransform="matrix(0.9781 -0.208 0.208 0.9781 -35.2639 74.2152)">
						<stop  offset="0" style="stop-color:#2CA6EF"/>
						<stop  offset="1" style="stop-color:#B1FFFF"/>
					</linearGradient>
					<polygon fill="url(#SVGID_10_)" points="348.649,81.339 378.471,221.593 284.478,241.579 254.655,101.325 					"/>
				</g>
				<g>
					
						<linearGradient id="SVGID_11_" gradientUnits="userSpaceOnUse" x1="336.9776" y1="200.3881" x2="360.0748" y2="161.933" gradientTransform="matrix(0.9781 -0.208 0.208 0.9781 -35.2639 74.2152)">
						<stop  offset="0" style="stop-color:#2C27CE"/>
						<stop  offset="1" style="stop-color:#EF1D68"/>
					</linearGradient>
					<polygon fill="url(#SVGID_11_)" points="341.188,166.481 358.236,162.856 357.09,157.468 340.042,161.093 					"/>
					
						<rect x="297.007" y="168.452" transform="matrix(-0.9781 0.208 -0.208 -0.9781 640.3657 275.0853)" fill="#EBFFF8" width="17.429" height="5.508"/>
					
						<rect x="318.716" y="163.836" transform="matrix(-0.9781 0.208 -0.208 -0.9781 682.3481 261.4391)" fill="#EBFFF8" width="17.429" height="5.509"/>
				</g>
				<g>
					<g>
						
							<rect x="281.279" y="175.464" transform="matrix(-0.9781 0.208 -0.208 -0.9781 674.6675 299.3069)" fill="#EBFFF8" width="80.64" height="19.314"/>
					</g>
					<g>
						
							<linearGradient id="SVGID_12_" gradientUnits="userSpaceOnUse" x1="401.0232" y1="182.7149" x2="252.0161" y2="182.7149" gradientTransform="matrix(0.9781 -0.208 0.208 0.9781 -35.2639 74.2152)">
							<stop  offset="0" style="stop-color:#36078B"/>
							<stop  offset="1" style="stop-color:#16B1FF"/>
						</linearGradient>
						<polygon fill="url(#SVGID_12_)" points="325.577,191.685 360.079,184.348 357.064,170.171 322.562,177.506 						"/>
					</g>
					<g>
						
							<linearGradient id="SVGID_13_" gradientUnits="userSpaceOnUse" x1="307.1437" y1="193.6513" x2="330.2397" y2="179.9872" gradientTransform="matrix(0.9781 -0.208 0.208 0.9781 -35.2639 74.2152)">
							<stop  offset="0" style="stop-color:#2C27CE"/>
							<stop  offset="1" style="stop-color:#EF1D68"/>
						</linearGradient>
						<polygon fill="url(#SVGID_13_)" points="324.312,191.954 321.181,192.62 318.165,178.441 321.297,177.776 						"/>
					</g>
					<g>
						
							<rect x="315.713" y="195.963" transform="matrix(-0.9781 0.208 -0.208 -0.9781 718.6274 340.4869)" fill="#EBFFF8" width="51.402" height="24.118"/>
						
							<linearGradient id="SVGID_14_" gradientUnits="userSpaceOnUse" x1="241.8826" y1="202.1291" x2="354.1102" y2="202.1291" gradientTransform="matrix(0.9781 -0.208 0.208 0.9781 -35.2639 74.2152)">
							<stop  offset="0" style="stop-color:#2C27CE"/>
							<stop  offset="1" style="stop-color:#EF1D68"/>
						</linearGradient>
						<polygon fill="url(#SVGID_14_)" points="333.175,203.86 358.827,198.406 358.276,195.816 332.624,201.271 						"/>
						
							<linearGradient id="SVGID_15_" gradientUnits="userSpaceOnUse" x1="241.8819" y1="206.8353" x2="354.1099" y2="206.8353" gradientTransform="matrix(0.9781 -0.208 0.208 0.9781 -35.2639 74.2152)">
							<stop  offset="0" style="stop-color:#2C27CE"/>
							<stop  offset="1" style="stop-color:#EF1D68"/>
						</linearGradient>
						<polygon fill="url(#SVGID_15_)" points="340.243,207.169 359.805,203.009 359.255,200.42 339.692,204.579 						"/>
						
							<linearGradient id="SVGID_16_" gradientUnits="userSpaceOnUse" x1="241.8785" y1="211.5416" x2="354.11" y2="211.5416" gradientTransform="matrix(0.9781 -0.208 0.208 0.9781 -35.2639 74.2152)">
							<stop  offset="0" style="stop-color:#2C27CE"/>
							<stop  offset="1" style="stop-color:#EF1D68"/>
						</linearGradient>
						<polygon fill="url(#SVGID_16_)" points="347.591,210.417 360.784,207.612 360.234,205.023 347.04,207.828 						"/>
						
							<linearGradient id="SVGID_17_" gradientUnits="userSpaceOnUse" x1="401.0207" y1="211.5408" x2="252.0177" y2="211.5408" gradientTransform="matrix(0.9781 -0.208 0.208 0.9781 -35.2639 74.2152)">
							<stop  offset="0" style="stop-color:#36078B"/>
							<stop  offset="1" style="stop-color:#16B1FF"/>
						</linearGradient>
						<polygon fill="url(#SVGID_17_)" points="338.097,212.435 345.96,210.763 345.41,208.174 337.546,209.846 						"/>
						
							<linearGradient id="SVGID_18_" gradientUnits="userSpaceOnUse" x1="241.8802" y1="216.2471" x2="354.1098" y2="216.2471" gradientTransform="matrix(0.9781 -0.208 0.208 0.9781 -35.2639 74.2152)">
							<stop  offset="0" style="stop-color:#2C27CE"/>
							<stop  offset="1" style="stop-color:#EF1D68"/>
						</linearGradient>
						<polygon fill="url(#SVGID_18_)" points="343.926,216.007 361.763,212.214 361.212,209.626 343.375,213.418 						"/>
					</g>
					
						<linearGradient id="SVGID_19_" gradientUnits="userSpaceOnUse" x1="296.5887" y1="165.4794" x2="408.5827" y2="53.4855" gradientTransform="matrix(0.9781 -0.208 0.208 0.9781 -35.2639 74.2152)">
						<stop  offset="0" style="stop-color:#2CA6EF"/>
						<stop  offset="1" style="stop-color:#B1FFFF"/>
					</linearGradient>
					<polygon fill="url(#SVGID_19_)" points="295.342,164.994 355.807,152.137 342.95,91.672 282.485,104.529 					"/>
					
						<linearGradient id="SVGID_20_" gradientUnits="userSpaceOnUse" x1="344.7911" y1="128.9968" x2="403.803" y2="140.122" gradientTransform="matrix(0.9781 -0.208 0.208 0.9781 -35.2639 74.2152)">
						<stop  offset="0" style="stop-color:#2C27CE"/>
						<stop  offset="1" style="stop-color:#EF1D68"/>
					</linearGradient>
					<path fill="url(#SVGID_20_)" d="M335.905,133.688l-5.273-15.862c-0.442-1.327-1.811-2.112-3.18-1.821l-1.291,0.275
						c-1.388-4.667-6.128-7.589-10.972-6.56c-4.844,1.03-7.985,5.628-7.355,10.457l-1.292,0.275
						c-1.369,0.291-2.299,1.564-2.163,2.956l1.637,16.636c0.541,5.504,5.749,9.314,11.159,8.164l11.859-2.522
						C334.443,144.536,337.651,138.937,335.905,133.688z M315.902,113.079c2.993-0.636,5.921,1.098,6.9,3.915l-11.609,2.468
						C310.941,116.49,312.911,113.715,315.902,113.079z"/>
					<g>
						
							<linearGradient id="SVGID_21_" gradientUnits="userSpaceOnUse" x1="401.0234" y1="209.2365" x2="252.018" y2="209.2365" gradientTransform="matrix(0.9781 -0.208 0.208 0.9781 -35.2639 74.2152)">
							<stop  offset="0" style="stop-color:#36078B"/>
							<stop  offset="0.2638" style="stop-color:#2E34AA"/>
							<stop  offset="1" style="stop-color:#16B1FF"/>
						</linearGradient>
						<polygon fill="url(#SVGID_21_)" points="290.185,231.244 313.775,226.228 308.759,202.637 285.168,207.653 						"/>
						<path fill="#F8FFFB" d="M299.697,218.005L299.697,218.005c1.66-0.353,2.72-1.984,2.367-3.643l-0.384-1.803
							c-0.353-1.66-1.984-2.718-3.643-2.365l0,0c-1.66,0.353-2.718,1.983-2.365,3.643l0.382,1.803
							C296.407,217.298,298.039,218.357,299.697,218.005z"/>
						<path fill="#F8FFFB" d="M299.37,216.462c2.831-0.603,5.627,0.539,7.274,2.698c0.963,1.263,0.291,3.1-1.263,3.43l-9.009,1.916
							c-1.554,0.33-2.915-1.076-2.548-2.62C294.448,219.243,296.538,217.064,299.37,216.462z"/>
					</g>
					
						<linearGradient id="SVGID_22_" gradientUnits="userSpaceOnUse" x1="401.0359" y1="132.1513" x2="252.0156" y2="132.1513" gradientTransform="matrix(0.9781 -0.208 0.208 0.9781 -35.2639 74.2152)">
						<stop  offset="0" style="stop-color:#36078B"/>
						<stop  offset="1" style="stop-color:#16B1FF"/>
					</linearGradient>
					<polygon fill="url(#SVGID_22_)" points="275.868,105.936 265.03,108.241 280.172,179.455 291.011,177.15 					"/>
					<polygon opacity="0.3" fill="#F5FEFF" points="320.248,87.378 268.603,166.918 261.105,131.659 284.989,94.875 					"/>
					<polygon opacity="0.3" fill="#F5FEFF" points="344.805,82.156 273.822,191.464 270.073,173.834 327.176,85.905 					"/>
					<g>
						
							<linearGradient id="SVGID_23_" gradientUnits="userSpaceOnUse" x1="293.6966" y1="190.2817" x2="293.6966" y2="175.4995" gradientTransform="matrix(0.9781 -0.208 0.208 0.9781 -35.2636 74.2153)">
							<stop  offset="0" style="stop-color:#36078B"/>
							<stop  offset="1" style="stop-color:#16B1FF"/>
						</linearGradient>
						<path fill="url(#SVGID_23_)" d="M287.446,196.051c-0.069-0.044-0.109-0.104-0.125-0.18l-1.431-6.727
							c-0.016-0.076-0.003-0.147,0.042-0.215c0.044-0.067,0.104-0.109,0.18-0.125l3.457-0.735c0.985-0.209,1.751-0.184,2.297,0.077
							c0.545,0.261,0.895,0.76,1.053,1.496c0.063,0.298,0.032,0.583-0.092,0.852c-0.124,0.269-0.279,0.479-0.466,0.627
							c0.301,0.052,0.577,0.199,0.828,0.439c0.252,0.24,0.412,0.528,0.482,0.861c0.164,0.771,0.036,1.398-0.382,1.883
							c-0.419,0.485-1.108,0.829-2.066,1.033l-3.561,0.757C287.585,196.108,287.514,196.094,287.446,196.051z M289.891,190.861
							c0.139-0.029,0.234-0.098,0.288-0.207c0.052-0.11,0.066-0.227,0.039-0.352c-0.027-0.125-0.086-0.228-0.18-0.31
							c-0.093-0.081-0.21-0.108-0.349-0.078l-0.875,0.186l0.202,0.948L289.891,190.861z M290.571,193.601
							c0.16-0.034,0.268-0.111,0.327-0.233c0.057-0.12,0.071-0.247,0.045-0.379c-0.028-0.132-0.097-0.241-0.206-0.326
							c-0.109-0.085-0.235-0.113-0.382-0.082l-0.968,0.206l0.217,1.021L290.571,193.601z"/>
						
							<linearGradient id="SVGID_24_" gradientUnits="userSpaceOnUse" x1="301.4313" y1="190.2823" x2="301.4313" y2="175.499" gradientTransform="matrix(0.9781 -0.208 0.208 0.9781 -35.2639 74.2152)">
							<stop  offset="0" style="stop-color:#36078B"/>
							<stop  offset="1" style="stop-color:#16B1FF"/>
						</linearGradient>
						<path fill="url(#SVGID_24_)" d="M295.742,193.737c-0.708-0.346-1.163-0.995-1.366-1.946l-0.905-4.259
							c-0.016-0.077-0.003-0.148,0.04-0.216c0.045-0.067,0.105-0.108,0.18-0.125l2.041-0.433c0.077-0.016,0.148-0.003,0.217,0.04
							c0.066,0.044,0.109,0.104,0.125,0.18l0.897,4.218c0.055,0.263,0.163,0.45,0.319,0.558c0.157,0.108,0.365,0.135,0.621,0.08
							c0.257-0.055,0.436-0.164,0.536-0.326c0.1-0.163,0.121-0.376,0.066-0.64l-0.898-4.218c-0.016-0.076-0.003-0.147,0.042-0.215
							c0.044-0.067,0.104-0.109,0.18-0.125l2.041-0.434c0.077-0.017,0.148-0.003,0.215,0.041c0.067,0.044,0.109,0.104,0.125,0.18
							l0.906,4.259c0.202,0.951,0.051,1.729-0.451,2.332c-0.504,0.605-1.272,1.016-2.306,1.237
							C297.326,194.146,296.451,194.084,295.742,193.737z"/>
						
							<linearGradient id="SVGID_25_" gradientUnits="userSpaceOnUse" x1="309.1825" y1="190.2824" x2="309.1825" y2="175.4993" gradientTransform="matrix(0.9781 -0.208 0.208 0.9781 -35.2639 74.2152)">
							<stop  offset="0" style="stop-color:#36078B"/>
							<stop  offset="1" style="stop-color:#16B1FF"/>
						</linearGradient>
						<path fill="url(#SVGID_25_)" d="M304.68,192.386c-0.067-0.044-0.109-0.103-0.127-0.18l-0.436-2.052l-3.328-4.135
							c-0.019-0.025-0.032-0.054-0.04-0.09c-0.013-0.062-0.003-0.12,0.034-0.175c0.035-0.055,0.085-0.089,0.147-0.102l1.957-0.416
							c0.119-0.026,0.219-0.016,0.306,0.028c0.085,0.043,0.148,0.089,0.187,0.139l1.486,1.872l0.596-2.315
							c0.016-0.061,0.054-0.129,0.114-0.203c0.061-0.075,0.149-0.124,0.268-0.149l1.958-0.417c0.063-0.013,0.121-0.002,0.176,0.034
							c0.054,0.035,0.089,0.084,0.102,0.147c0.007,0.035,0.005,0.067-0.001,0.098l-1.358,5.132l0.436,2.051
							c0.016,0.077,0.003,0.149-0.04,0.216c-0.044,0.067-0.104,0.109-0.18,0.125l-2.041,0.434
							C304.819,192.444,304.747,192.43,304.68,192.386z"/>
					</g>
				</g>
				<linearGradient id="SVGID_26_" gradientUnits="userSpaceOnUse" x1="304.3809" y1="220.337" x2="332.4352" y2="88.2885">
					<stop  offset="0" style="stop-color:#2CA6EF"/>
					<stop  offset="1" style="stop-color:#B1FFFF"/>
				</linearGradient>
				<path opacity="0.6" fill="url(#SVGID_26_)" d="M355.759,105.841l-5.294-24.893l-2.64-12.419
					c-0.598-2.808-3.362-4.615-6.17-4.018l-87.451,18.595c-2.807,0.597-4.597,3.373-4.001,6.181l2.641,12.419l32.788,154.203
					c0.598,2.807,3.359,4.6,6.167,4.004l87.449-18.596c2.808-0.596,4.602-3.359,4.005-6.166l-22.018-103.546
					c0.763-0.468,1.191-1.374,0.995-2.3l-4.628-21.768C357.406,106.611,356.646,105.958,355.759,105.841z"/>
			</g>
			<g>
				
					<linearGradient id="SVGID_27_" gradientUnits="userSpaceOnUse" x1="297.9532" y1="304.5427" x2="319.6771" y2="281.2631" gradientTransform="matrix(1 -0.008 0.008 1 -86.7318 -6.1855)">
					<stop  offset="0" style="stop-color:#36078B"/>
					<stop  offset="1" style="stop-color:#16B1FF"/>
				</linearGradient>
				<path fill="url(#SVGID_27_)" d="M211.944,295.411c-6.112-3.891,1.712-15.797,15.94-16.952c0,0,1.52,6.267,0.124,11.836
					C226.817,295.049,220.503,300.859,211.944,295.411z"/>
				
					<linearGradient id="SVGID_28_" gradientUnits="userSpaceOnUse" x1="284.2921" y1="289.7363" x2="306.0159" y2="266.4568" gradientTransform="matrix(0.9276 -0.3736 0.3736 0.9276 -166.4103 133.7122)">
					<stop  offset="0" style="stop-color:#36078B"/>
					<stop  offset="1" style="stop-color:#16B1FF"/>
				</linearGradient>
				<path fill="url(#SVGID_28_)" d="M203.743,296.364c-7.114-1.383-4.191-15.327,8.627-21.61c0,0,3.708,5.275,4.448,10.969
					C217.451,290.582,213.703,298.302,203.743,296.364z"/>
				
					<linearGradient id="SVGID_29_" gradientUnits="userSpaceOnUse" x1="281.4876" y1="268.6089" x2="301.1521" y2="247.5362" gradientTransform="matrix(0.6616 -0.7498 0.7498 0.6616 -187.4461 329.8499)">
					<stop  offset="0" style="stop-color:#36078B"/>
					<stop  offset="1" style="stop-color:#16B1FF"/>
				</linearGradient>
				<path fill="url(#SVGID_29_)" d="M198.774,297.317c-6.317,1.768-9.611-10.701-1.79-20.986c0,0,5.14,2.763,8.051,7.068
					C207.517,287.075,207.618,294.842,198.774,297.317z"/>
				
					<linearGradient id="SVGID_30_" gradientUnits="userSpaceOnUse" x1="290.8892" y1="248.243" x2="308.5544" y2="229.3128" gradientTransform="matrix(0.2661 -0.964 0.964 0.2661 -119.8651 508.8677)">
					<stop  offset="0" style="stop-color:#36078B"/>
					<stop  offset="1" style="stop-color:#16B1FF"/>
				</linearGradient>
				<path fill="url(#SVGID_30_)" d="M196.025,295.723c-4.405,3.914-11.975-4.857-9.709-16.241c0,0,5.238,0.207,9.284,2.538
					C199.053,284.01,202.193,290.241,196.025,295.723z"/>
				
					<linearGradient id="SVGID_31_" gradientUnits="userSpaceOnUse" x1="277.6298" y1="264.2702" x2="355.5681" y2="180.7507" gradientTransform="matrix(0.9798 -0.1997 0.1997 0.9798 -135.0859 63.6846)">
					<stop  offset="0" style="stop-color:#36078B"/>
					<stop  offset="1" style="stop-color:#16B1FF"/>
				</linearGradient>
				<path fill="url(#SVGID_31_)" d="M183.289,266.373c-24.198-9.491-4.843-56.799,44.453-70.654c0,0,9.661,21.016,8.582,41.587
					C235.405,254.857,217.175,279.664,183.289,266.373z"/>
				<linearGradient id="SVGID_32_" gradientUnits="userSpaceOnUse" x1="175.3761" y1="313.5515" x2="240.1171" y2="211.1544">
					<stop  offset="0.4829" style="stop-color:#36078B"/>
					<stop  offset="1" style="stop-color:#16B1FF"/>
				</linearGradient>
				<path fill="url(#SVGID_32_)" d="M222.824,201.69c-4.544,3.224-8.238,7.389-11.298,11.869c-1.571,2.213-2.96,4.548-4.206,6.949
					c-0.599,1.216-1.253,2.392-1.796,3.635l-0.849,1.838l-0.759,1.881c-1.964,5.034-3.625,10.191-4.764,15.498
					c-0.249,1.334-0.638,2.632-0.859,3.976l-0.739,4.009c-0.369,2.7-0.816,5.384-1.029,8.111
					c-1.255,10.852-1.315,21.885-0.95,32.953c0.214,5.534,0.506,11.091,0.915,16.657c0.194,2.784,0.316,5.588,0.572,8.379
					l0.392,4.19l0.269,4.225l-0.396,0.081c-2.237-10.99-3.977-22.091-4.918-33.277c-0.299-2.791-0.36-5.6-0.549-8.401
					c-0.147-2.802-0.139-5.611-0.214-8.418c0.077-5.612,0.215-11.236,0.862-16.823c0.245-2.8,0.749-5.571,1.163-8.349
					c0.54-2.759,1.062-5.521,1.785-8.241c1.388-5.447,3.197-10.797,5.564-15.902c2.378-5.092,5.248-9.988,8.846-14.324
					c3.569-4.332,7.738-8.28,12.795-10.885L222.824,201.69z"/>
				
					<linearGradient id="SVGID_33_" gradientUnits="userSpaceOnUse" x1="353.8328" y1="255.92" x2="413.1624" y2="192.3417" gradientTransform="matrix(-0.9798 -0.1997 -0.1997 0.9798 591.4753 63.6846)">
					<stop  offset="0" style="stop-color:#36078B"/>
					<stop  offset="1" style="stop-color:#16B1FF"/>
				</linearGradient>
				<path fill="url(#SVGID_33_)" d="M198.571,243.165c18.421-7.225,3.686-43.237-33.839-53.785c0,0-7.355,15.998-6.534,31.657
					C158.899,234.398,172.775,253.282,198.571,243.165z"/>
				<linearGradient id="SVGID_34_" gradientUnits="userSpaceOnUse" x1="221.0018" y1="315.1898" x2="151.1197" y2="204.6612">
					<stop  offset="0.4829" style="stop-color:#36078B"/>
					<stop  offset="1" style="stop-color:#16B1FF"/>
				</linearGradient>
				<path fill="url(#SVGID_34_)" d="M168.661,193.693c7.404,8.972,13.152,19.236,17.896,29.865l1.789,3.992l1.578,4.075l1.574,4.082
					c0.518,1.362,0.946,2.756,1.423,4.133c0.475,1.379,0.905,2.772,1.356,4.16c0.459,1.384,0.893,2.776,1.252,4.188l2.295,8.441
					c0.65,2.841,1.202,5.704,1.808,8.554c0.289,1.427,0.606,2.85,0.874,4.281l0.658,4.32l1.217,8.648
					c0.283,2.897,0.512,5.8,0.732,8.698l0.339,4.346c0.075,1.451,0.092,2.907,0.11,4.359l0.1,8.709
					c0.019,1.45-0.055,2.901-0.155,4.351l-0.257,4.344l-0.262,4.336l-0.357,4.326l-0.308-0.005l-0.089-8.644l-0.046-4.322
					c0-1.44-0.026-2.881-0.145-4.317l-0.547-8.626c-0.1-1.436-0.164-2.877-0.292-4.311l-0.495-4.293l-0.992-8.584l-1.403-8.526
					l-0.712-4.261l-0.903-4.223c-0.625-2.811-1.196-5.635-1.863-8.436c-2.741-11.186-6.214-22.197-10.526-32.88
					c-4.355-10.646-9.396-21.096-15.897-30.599L168.661,193.693z"/>
				
					<linearGradient id="SVGID_35_" gradientUnits="userSpaceOnUse" x1="223.4957" y1="211.5185" x2="332.5914" y2="94.6103" gradientTransform="matrix(0.9617 -0.2739 0.2739 0.9617 -55.1238 80.3716)">
					<stop  offset="0" style="stop-color:#36078B"/>
					<stop  offset="1" style="stop-color:#16B1FF"/>
				</linearGradient>
				<path fill="url(#SVGID_35_)" d="M208.698,222.142c-34.787-10.662-12.827-78.756,54.496-103.36c0,0,15.73,28.3,16.422,57.125
					C280.206,200.503,257.414,237.073,208.698,222.142z"/>
				<linearGradient id="SVGID_36_" gradientUnits="userSpaceOnUse" x1="181.0386" y1="314.2022" x2="277.6136" y2="138.1256">
					<stop  offset="0.4829" style="stop-color:#36078B"/>
					<stop  offset="1" style="stop-color:#16B1FF"/>
				</linearGradient>
				<path fill="url(#SVGID_36_)" d="M257.011,127.554c-5.001,7.18-9.54,14.622-13.467,22.376
					c-4.072,7.661-7.736,15.511-11.099,23.468c-3.275,7.995-6.392,16.046-8.973,24.279c-2.675,8.197-5.081,16.482-7.048,24.88
					c-2.038,8.378-3.788,16.834-5.152,25.364c-0.415,2.12-0.697,4.262-1.019,6.4c-0.302,2.139-0.664,4.273-0.917,6.42l-0.755,6.446
					c-0.307,2.145-0.509,4.3-0.711,6.457l-0.626,6.475c-0.144,2.164-0.269,4.328-0.452,6.494c-0.408,4.331-0.505,8.675-0.742,13.028
					c-0.17,2.177-0.225,4.355-0.288,6.536l-0.201,6.552c-0.071,2.188-0.004,4.37-0.027,6.56l-0.139,6.589l-0.481,0.043
					c-1.578-17.452-1.89-35.023-0.824-52.52c1.011-17.503,3.635-34.906,7.652-51.977c4.206-17.024,9.863-33.709,17.251-49.619
					c3.689-7.955,7.814-15.706,12.368-23.198c2.281-3.743,4.662-7.427,7.201-11.002c2.538-3.578,5.172-7.081,8.092-10.378
					L257.011,127.554z"/>
				
					<linearGradient id="SVGID_37_" gradientUnits="userSpaceOnUse" x1="235.0523" y1="254.2809" x2="313.7639" y2="169.9328" gradientTransform="matrix(0.9987 0.0516 -0.0516 0.9987 12.9255 -9.8656)">
					<stop  offset="0" style="stop-color:#36078B"/>
					<stop  offset="1" style="stop-color:#16B1FF"/>
				</linearGradient>
				<path fill="url(#SVGID_37_)" d="M228.473,253.809c-21.267-15.392,9.606-56.769,61.313-57.871c0,0,4.142,22.991-2.107,42.837
					C282.348,255.707,258.257,275.364,228.473,253.809z"/>
				<linearGradient id="SVGID_38_" gradientUnits="userSpaceOnUse" x1="190.9943" y1="310.4777" x2="296.6184" y2="214.0229">
					<stop  offset="0.4829" style="stop-color:#36078B"/>
					<stop  offset="1" style="stop-color:#16B1FF"/>
				</linearGradient>
				<path fill="url(#SVGID_38_)" d="M283.511,200.491c-5.234,3.529-10.117,7.49-14.622,11.833l-3.402,3.213l-3.231,3.387
					c-1.045,1.158-2.207,2.193-3.195,3.405l-3.059,3.526c-2.095,2.297-3.908,4.839-5.862,7.251c-0.94,1.237-1.975,2.396-2.834,3.696
					l-2.645,3.838c-0.872,1.286-1.789,2.538-2.686,3.805c-0.878,1.28-1.648,2.633-2.477,3.946l-2.448,3.966
					c-0.806,1.327-1.672,2.618-2.364,4.015l-4.478,8.185c-0.368,0.685-0.762,1.357-1.107,2.054l-0.977,2.12
					c-0.654,1.414-1.299,2.831-1.983,4.231l-2.025,4.216c-0.331,0.705-0.689,1.399-0.999,2.115l-0.866,2.174
					c-1.139,2.905-2.337,5.79-3.545,8.679c-1.301,2.855-2.177,5.863-3.244,8.813l-3.157,8.883
					c-1.99,5.971-3.572,12.068-5.652,18.091l-0.342-0.066c1.415-6.163,2.709-12.359,4.223-18.498l2.69-9.101
					c0.912-3.029,1.717-6.093,2.904-9.029l3.301-8.9l0.824-2.225c0.296-0.734,0.642-1.446,0.961-2.17l1.948-4.328l1.949-4.33
					l0.975-2.165c0.343-0.712,0.738-1.399,1.104-2.1l4.479-8.375c6.391-10.925,13.729-21.325,22.31-30.645
					c2.169-2.306,4.295-4.654,6.649-6.776l3.457-3.254l3.627-3.065c4.894-4.008,10.02-7.769,15.646-10.729L283.511,200.491z"/>
				<linearGradient id="SVGID_39_" gradientUnits="userSpaceOnUse" x1="246.508" y1="197.7622" x2="258.316" y2="176.2337">
					<stop  offset="0" style="stop-color:#36078B"/>
					<stop  offset="1" style="stop-color:#16B1FF"/>
				</linearGradient>
				<path fill="url(#SVGID_39_)" d="M234.739,189.901c2.54-1.944,5.312-3.278,8.152-4.368c1.41-0.596,2.872-0.981,4.323-1.436
					c1.463-0.397,2.952-0.695,4.436-1.022c1.509-0.201,3.003-0.467,4.529-0.582c1.524-0.089,3.053-0.197,4.592-0.126
					c3.072,0.1,6.194,0.518,9.161,1.704l-0.01,0.321c-5.945-0.055-11.863,0.749-17.701,1.843c-5.854,1.029-11.67,2.344-17.388,3.973
					L234.739,189.901z"/>
				<linearGradient id="SVGID_40_" gradientUnits="userSpaceOnUse" x1="250.8476" y1="175.7422" x2="258.3057" y2="156.2353">
					<stop  offset="0" style="stop-color:#36078B"/>
					<stop  offset="1" style="stop-color:#16B1FF"/>
				</linearGradient>
				<path fill="url(#SVGID_40_)" d="M240.299,170.391c1.801-2.066,3.906-3.576,6.108-4.862c2.207-1.28,4.521-2.345,6.94-3.125
					c2.418-0.785,4.935-1.303,7.508-1.53c2.574-0.203,5.236-0.118,7.843,0.711l0.035,0.319c-2.449,0.353-4.868,0.868-7.273,1.447
					c-2.396,0.614-4.767,1.329-7.118,2.105c-2.356,0.757-4.693,1.578-7.01,2.457c-2.31,0.892-4.619,1.802-6.898,2.768
					L240.299,170.391z"/>
				<linearGradient id="SVGID_41_" gradientUnits="userSpaceOnUse" x1="212.2402" y1="185.6855" x2="212.2955" y2="167.2148">
					<stop  offset="0" style="stop-color:#36078B"/>
					<stop  offset="1" style="stop-color:#16B1FF"/>
				</linearGradient>
				<path fill="url(#SVGID_41_)" d="M215.89,185.696c-1.07-1.605-1.751-3.108-2.382-4.575c-0.6-1.468-1.112-2.884-1.589-4.247
					c-0.483-1.359-0.884-2.707-1.415-3.98c-0.517-1.309-1.084-2.569-2.162-4.183l0.109-0.273c1.574,0.607,2.921,1.709,3.936,3.044
					c1.046,1.323,1.741,2.868,2.313,4.426c0.54,1.576,0.899,3.203,1.14,4.842c0.249,1.638,0.38,3.288,0.343,4.948L215.89,185.696z"
					/>
				<linearGradient id="SVGID_42_" gradientUnits="userSpaceOnUse" x1="224.7635" y1="163.8573" x2="227.9" y2="149.801">
					<stop  offset="0" style="stop-color:#36078B"/>
					<stop  offset="1" style="stop-color:#16B1FF"/>
				</linearGradient>
				<path fill="url(#SVGID_42_)" d="M227.337,164.432c-0.517-1.384-0.774-2.636-0.959-3.854c-0.179-1.216-0.331-2.379-0.417-3.504
					c-0.096-1.128-0.141-2.221-0.281-3.284c-0.151-1.076-0.283-2.127-0.82-3.506l0.127-0.183c1.084,0.729,1.855,1.84,2.334,3.033
					c0.503,1.194,0.74,2.473,0.857,3.746c0.175,2.555-0.036,5.119-0.623,7.599L227.337,164.432z"/>
				<g>
					<linearGradient id="SVGID_43_" gradientUnits="userSpaceOnUse" x1="207.9103" y1="293.1118" x2="207.9103" y2="326.2879">
						<stop  offset="0" style="stop-color:#2C27CE"/>
						<stop  offset="1" style="stop-color:#EF1D68"/>
					</linearGradient>
					<path fill="url(#SVGID_43_)" d="M222.863,330.328h-29.906c-1.486,0-2.737-1.111-2.913-2.586l-4.122-34.665
						c-0.207-1.745,1.155-3.28,2.913-3.28h38.15c1.757,0,3.121,1.535,2.912,3.28l-4.121,34.665
						C225.6,329.217,224.349,330.328,222.863,330.328z"/>
					<linearGradient id="SVGID_44_" gradientUnits="userSpaceOnUse" x1="207.9102" y1="301.5784" x2="207.9102" y2="287.1276">
						<stop  offset="0" style="stop-color:#2C27CE"/>
						<stop  offset="1" style="stop-color:#EF1D68"/>
					</linearGradient>
					<path fill="url(#SVGID_44_)" d="M230.852,296.67H184.97c-0.956,0-1.768-0.697-1.913-1.642l-0.901-5.891
						c-0.179-1.172,0.728-2.228,1.912-2.228h47.684c1.185,0,2.091,1.056,1.912,2.228l-0.901,5.891
						C232.62,295.972,231.806,296.67,230.852,296.67z"/>
				</g>
			</g>
			<g>
				<g>
					<path fill="#FFAF84" d="M373.385,230.719c-1.808,0.416-4.626,1.072-6.163,1.311c-1.537,0.238-1.115,3.761-0.23,4.331
						c1.315,0.849,5.806,1.575,6.784-0.172c0.977-1.746,2.85-1.342,3.199-3.106C377.322,231.319,376.342,230.039,373.385,230.719z"
						/>
					
						<linearGradient id="SVGID_45_" gradientUnits="userSpaceOnUse" x1="391.6776" y1="338.6123" x2="394.5365" y2="300.732" gradientTransform="matrix(0.9993 0.0378 -0.0378 0.9993 8.3892 -15.1872)">
						<stop  offset="0" style="stop-color:#36078B"/>
						<stop  offset="1" style="stop-color:#16B1FF"/>
					</linearGradient>
					<path fill="url(#SVGID_45_)" d="M389.604,328.43c-0.398,0.684-2.24,2.229-4.747,3.197c-2.507,0.969-7.756,1.27-4.886,2.314
						c2.869,1.045,6.278,0.607,8.004,0.407c1.725-0.201,3.39-0.174,5.415-0.11c2.667,0.085,2.693-0.073,2.445-2.986
						C395.491,327.241,390.892,326.22,389.604,328.43z"/>
					
						<linearGradient id="SVGID_46_" gradientUnits="userSpaceOnUse" x1="447.308" y1="342.8132" x2="450.1669" y2="304.933" gradientTransform="matrix(0.9993 0.0378 -0.0378 0.9993 8.3892 -15.1872)">
						<stop  offset="0" style="stop-color:#36078B"/>
						<stop  offset="1" style="stop-color:#16B1FF"/>
					</linearGradient>
					<path fill="url(#SVGID_46_)" d="M445.491,324.484c-0.399,0.683-1.558,4.542-4.064,5.51c-2.507,0.968-6.959,2.094-4.09,3.14
						c2.87,1.045,6.279,0.607,8.004,0.407c1.725-0.201,2.135-2.321,3.937-3.248c2.788-1.436,2.431-1.292,2.182-4.206
						C451.117,322.075,446.778,322.274,445.491,324.484z"/>
					
						<linearGradient id="SVGID_47_" gradientUnits="userSpaceOnUse" x1="213.8758" y1="197.5393" x2="261.0797" y2="231.2766" gradientTransform="matrix(-0.9753 0.2208 0.2208 0.9753 561.6151 -49.557)">
						<stop  offset="0" style="stop-color:#36078B"/>
						<stop  offset="1" style="stop-color:#16B1FF"/>
					</linearGradient>
					<path fill="url(#SVGID_47_)" d="M372.113,230.369c2.16-2.509,3.364-6.276,4.797-9.219c1.896-3.889,3.727-7.71,6.571-11.02
						c0.323-0.376,0.658-0.75,0.893-1.187c0.797-1.489,0.828-3.837,1.007-5.518c0.195-1.843,0.31-3.696,0.431-5.546
						c0.345-5.335,0.635-10.672,1.05-16.002c0.156-2.007,3.652-5.74,6.791-4.921c3.484,0.907,4.51,2.447,4.444,6.28
						c-0.036,2.151-0.003,5.171-1.074,12.059c-1.282,8.249-3.059,17.026-8.335,23.75c-2.075,2.643-4.137,5.289-6.338,7.839
						c-4.105,4.755-5.759,5.497-8.344,6.178C371.907,233.613,370.965,231.703,372.113,230.369z"/>
					
						<linearGradient id="SVGID_48_" gradientUnits="userSpaceOnUse" x1="374.3122" y1="165.4493" x2="410.0337" y2="125.4753" gradientTransform="matrix(0.9993 0.0378 -0.0378 0.9993 8.3892 -15.1872)">
						<stop  offset="0" style="stop-color:#2C27CE"/>
						<stop  offset="0.6488" style="stop-color:#EF1D68"/>
						<stop  offset="1" style="stop-color:#EFBA92"/>
					</linearGradient>
					<path fill="url(#SVGID_48_)" d="M391.41,156.397c-1.782,1.436-2.656,1.658-3.993-0.667c-0.063-0.111-7.208-6.966-0.657-9.619
						c3.005-1.218,5.424-1.906,6.093,2.391C393.521,152.798,393.527,154.691,391.41,156.397z"/>
					<path fill="#ED9169" d="M402.906,156.901c0.153,0.28,3.149,6.354,5.061,11.158c0.937,2.355-0.606,5.492-2.961,6.43
						c-0.035,0.014-0.07,0.027-0.104,0.04c-2.329,0.864-5.852-0.23-6.512-2.638c-1.192-4.358-3.071-8.572-3.106-8.636
						L402.906,156.901z"/>
					
						<linearGradient id="SVGID_49_" gradientUnits="userSpaceOnUse" x1="184.2498" y1="224.3822" x2="274.7139" y2="155.2199" gradientTransform="matrix(-0.9993 -0.0378 -0.0378 0.9993 628.5022 8.8848)">
						<stop  offset="0" style="stop-color:#36078B"/>
						<stop  offset="1" style="stop-color:#16B1FF"/>
					</linearGradient>
					<path fill="url(#SVGID_49_)" d="M420.254,182.09c-1.766,14.782-0.824,38.273,1.757,47.919l-32.603-1.235
						c0,0-1.906-21.084-3.499-39.385c-0.296-3.405-0.3-6.805,0.436-10.156c0.707-3.22,3.004-6.139,5.73-7.933
						c2.504-1.648,5.461-2.447,8.383-3.111c2.633-0.599,5.306-1.111,8.008-1.133c3.669-0.029,7.705,0.786,9.937,3.945
						c1.971,2.788,2.228,6.463,1.98,9.762C420.351,181.207,420.307,181.65,420.254,182.09z"/>
					
						<linearGradient id="SVGID_50_" gradientUnits="userSpaceOnUse" x1="384.4218" y1="332.8856" x2="401.0055" y2="261.8734" gradientTransform="matrix(0.9993 0.0378 -0.0378 0.9993 8.3892 -15.1872)">
						<stop  offset="0" style="stop-color:#FF664F"/>
						<stop  offset="1" style="stop-color:#9E005D"/>
					</linearGradient>
					<path fill="url(#SVGID_50_)" d="M421.122,249.95c0,0,3.075-6.737,0.889-19.941l-32.603-1.235c0,0-1.518,9.305-1.943,19.9
						L421.122,249.95z"/>
					<g>
						<g>
							
								<linearGradient id="SVGID_51_" gradientUnits="userSpaceOnUse" x1="421.6665" y1="361.2767" x2="443.2097" y2="269.0278" gradientTransform="matrix(0.9993 0.0378 -0.0378 0.9993 8.3892 -15.1874)">
								<stop  offset="0" style="stop-color:#FF664F"/>
								<stop  offset="1" style="stop-color:#9E005D"/>
							</linearGradient>
							<path fill="url(#SVGID_51_)" d="M417.851,288.938c-7.633-7.834-3.25-14.606,4.655-11.723
								c11.178,4.075,23.281,41.293,28.085,46.299c0.629,0.657,0.164,0.891-0.332,1.143c-1.459,0.735-2.4-0.424-4.165,0.163
								c-0.724,0.241-1.73,2.104-1.73,2.104C436.936,318.415,425.22,296.5,417.851,288.938z"/>
							
								<linearGradient id="SVGID_52_" gradientUnits="userSpaceOnUse" x1="399.6663" y1="336.4507" x2="416.2506" y2="265.4357" gradientTransform="matrix(0.9993 0.0378 -0.0378 0.9993 8.3892 -15.1874)">
								<stop  offset="0" style="stop-color:#FF664F"/>
								<stop  offset="1" style="stop-color:#9E005D"/>
							</linearGradient>
							<path fill="url(#SVGID_52_)" d="M404.885,250.769c-0.645-13.23,4.965-23.272,12.979-18.608
								c3.374,1.962,4.495,5.676,4.828,9.144c0.334,3.469,1.862,30.057,2.505,36.574c1.447,14.689-10.827,9.965-11.925,5.868
								C410.499,273.404,405.238,257.978,404.885,250.769z"/>
						</g>
					</g>
					
						<linearGradient id="SVGID_53_" gradientUnits="userSpaceOnUse" x1="383.8854" y1="345.8247" x2="403.826" y2="260.4381" gradientTransform="matrix(0.9993 0.0378 -0.0378 0.9993 8.3892 -15.1872)">
						<stop  offset="0" style="stop-color:#FF664F"/>
						<stop  offset="1" style="stop-color:#9E005D"/>
					</linearGradient>
					<path fill="url(#SVGID_53_)" d="M384.544,278.77c0.509-9.899,5.792-12.053,10.571-5.129
						c7.523,10.897-0.127,44.209,0.697,57.262c-2.423-2.04-5.391-1.988-6.084-1.707c-1.13,0.458-0.252-1.356-0.252-1.356
						C385.418,307.46,384.091,287.615,384.544,278.77z"/>
					
						<linearGradient id="SVGID_54_" gradientUnits="userSpaceOnUse" x1="378.0268" y1="331.3963" x2="394.6112" y2="260.381" gradientTransform="matrix(0.9993 0.0378 -0.0378 0.9993 8.3892 -15.1872)">
						<stop  offset="0" style="stop-color:#FF664F"/>
						<stop  offset="1" style="stop-color:#9E005D"/>
					</linearGradient>
					<path fill="url(#SVGID_54_)" d="M397.421,281.391c-1.434,3.992-14.423,9.566-12.714-5.096
						c0.758-6.504,3.127-33.086,3.522-36.548c0.394-3.461,1.187-8.512,2.954-9.079c8.827-2.838,16.879,7.839,14.097,20.789
						C403.419,260.115,400.394,273.114,397.421,281.391z"/>
					
						<linearGradient id="SVGID_55_" gradientUnits="userSpaceOnUse" x1="374.7031" y1="211.695" x2="430.126" y2="152.3033" gradientTransform="matrix(0.9993 0.0378 -0.0378 0.9993 10.4321 -15.1101)">
						<stop  offset="0" style="stop-color:#36078B"/>
						<stop  offset="1" style="stop-color:#16B1FF"/>
					</linearGradient>
					<path fill="url(#SVGID_55_)" d="M400.254,199.724c2.484-2.054,4.716-4.276,6.807-6.743c1.628-1.92,3.175-3.908,4.676-5.928
						c4.159-5.594,5.539-8.281,6.574-10.166c1.844-3.36,0.028-7.337-2.812-8.189c-3.106-0.932-5.04,0.866-8.433,4.144
						c-7.619,7.362-11.313,17.755-13.3,20.798c-0.53-0.01-1.064,0.032-1.591,0.172c-4.222,1.112-10.932,6.009-20.913,9.859
						c-1.641,0.633-1.209,4.043,0.829,4.785c2.511,0.913,5.214-0.277,11.284-1.902c3.761-1.007,7.6-1.967,11.169-3.556
						c1.842-0.821,3.826-1.735,5.389-3.008C400.04,199.9,400.148,199.813,400.254,199.724z"/>
					<path fill="#FFAF84" d="M405.267,152.806c0.809,5.724,0.946,7.001-0.934,9.886c-1.881,2.884-5.116,4.787-7.762,5.434
						c-2.861,0.699-5.72-1.803-6.944-4.009c-1.267-2.285-3.453-7.836-4.146-14.151c-0.353-3.201,2.557-7.899,6.504-8.865
						C395.932,140.136,403.294,138.821,405.267,152.806z"/>
					
						<linearGradient id="SVGID_56_" gradientUnits="userSpaceOnUse" x1="379.447" y1="170.0359" x2="415.166" y2="130.0646" gradientTransform="matrix(0.9993 0.0378 -0.0378 0.9993 8.3892 -15.1872)">
						<stop  offset="0" style="stop-color:#2C27CE"/>
						<stop  offset="0.6488" style="stop-color:#EF1D68"/>
						<stop  offset="1" style="stop-color:#EFBA92"/>
					</linearGradient>
					<path fill="url(#SVGID_56_)" d="M405.045,151.945c-1.143,1.881-1.861,2.367-3.829,0.701c-1.528-1.293-6.057-6.4-3.737-8.483
						c2.318-2.083,4.283-3.496,6.29,0.171C405.778,148.001,406.401,149.71,405.045,151.945z"/>
					
						<ellipse transform="matrix(-0.9891 -0.1475 0.1475 -0.9891 784.1891 365.3087)" fill="#FFAF84" cx="405.637" cy="153.584" rx="2.038" ry="3.892"/>
					
						<linearGradient id="SVGID_57_" gradientUnits="userSpaceOnUse" x1="371.1597" y1="162.6298" x2="406.8788" y2="122.6585" gradientTransform="matrix(0.9993 0.0378 -0.0378 0.9993 8.3892 -15.1872)">
						<stop  offset="0" style="stop-color:#2C27CE"/>
						<stop  offset="0.6488" style="stop-color:#EF1D68"/>
						<stop  offset="1" style="stop-color:#EFBA92"/>
					</linearGradient>
					<path fill="url(#SVGID_57_)" d="M400.856,142.217c-1.381,3.78-11.823,6.656-15.547,6.298c-3.725-0.357-5.109-7.053-0.311-8.708
						c2.763-0.681,0.922,0.471,3.386,0.833C389.631,140.823,402.33,138.182,400.856,142.217z"/>
					<path fill="#FFAF84" d="M371.311,202.998c-1.657,0.522-9.301,2.44-7.286,4.62c2.228,2.41,4.416,2.574,6.23,2.084
						c3.32-0.894,3.545-2.002,3.492-4.09C373.71,204.133,372.887,202.501,371.311,202.998z"/>
					<path fill="#FFAF84" d="M363.895,206.2c-0.707,0.329-4.89,2.295-4.529,2.956c0.549,1.006,3.362-0.171,5.226-0.944
						c1.011-0.419,2.058-1.533,1.579-2.155C365.693,205.433,365.028,205.674,363.895,206.2z"/>
				</g>
				<g>
					<defs>
						<path id="SVGID_58_" d="M451.459,326.086c-0.066-0.78-0.287-1.396-0.603-1.874c0.082-0.168,0.035-0.384-0.265-0.697
							c-4.41-4.596-14.972-36.32-25.322-44.646c-0.019-0.323-0.038-0.646-0.071-0.99c-0.629-6.369-2.103-31.893-2.48-36.289
							c0.176-3.044,0.069-6.897-0.707-11.581c-2.581-9.646-3.523-33.137-1.757-47.919c0.053-0.441,0.097-0.883,0.129-1.325
							c0.248-3.3-0.009-6.974-1.98-9.762c-0.35-0.497-0.759-0.917-1.19-1.304c-0.128-0.117-0.26-0.226-0.397-0.327
							c-2.291-1.803-5.43-2.338-8.349-2.314c-0.298,0.003-0.592,0.032-0.887,0.045c-0.788-1.91-1.698-3.937-2.505-5.68
							c0.648-1.281,0.832-2.403,0.727-4.138c0.848-0.43,1.606-1.747,1.852-3.401c0.316-2.126-0.329-3.984-1.443-4.149
							c-0.153-0.024-0.31-0.005-0.463,0.036c0.061-1.435-0.645-3.003-1.978-5.437c-0.954-1.743-1.9-2.33-2.877-2.251
							c1.136-3.836-11.276-1.263-12.508-1.444c-2.464-0.362-0.623-1.514-3.386-0.833c-4.317,1.489-3.621,7.043-0.728,8.406
							c-0.913,2.042,0.704,4.602,1.941,6.147c0.965,4.403,2.453,8.023,3.415,9.757c1.224,2.206,4.083,4.709,6.944,4.009
							c0.187-0.046,0.382-0.112,0.573-0.17c0.114,0.32,0.229,0.653,0.342,0.99c-1.908,0.553-3.757,1.268-5.411,2.356
							c-2.726,1.794-5.023,4.713-5.73,7.933c-0.736,3.351-0.732,6.75-0.436,10.156c0.083,0.952,0.167,1.912,0.252,2.876
							c-0.09,1.458-0.182,2.917-0.273,4.375c-3.518,1.867-7.899,4.303-13.278,6.49c-0.354-0.215-0.782-0.296-1.299-0.133
							c-1.27,0.401-6.041,1.621-7.301,3.15c-0.039,0.018-0.074,0.033-0.114,0.052c-0.707,0.329-4.89,2.295-4.529,2.956
							c0.549,1.006,3.362-0.171,5.226-0.944c0.011-0.004,0.022-0.011,0.032-0.016c2.018,1.836,3.98,1.952,5.63,1.506
							c1.177-0.316,1.949-0.662,2.473-1.068c2.351,0.525,5.085-0.594,10.646-2.083c0.583-0.156,1.169-0.313,1.754-0.469
							c-0.129,1.043-0.334,2.071-0.755,2.859c-0.234,0.438-0.57,0.812-0.893,1.187c-2.845,3.312-4.676,7.131-6.571,11.02
							c-1.432,2.943-2.637,6.71-4.797,9.219c-0.199,0.232-0.315,0.482-0.393,0.732c-1.59,0.361-3.381,0.754-4.498,0.929
							c-1.537,0.238-1.115,3.761-0.23,4.331c1.315,0.849,5.806,1.575,6.784-0.172c0.977-1.746,2.85-1.342,3.199-3.106
							c0.085-0.431,0.088-0.833,0.004-1.186c1.403-0.825,2.966-2.229,5.37-5.015c2.153-2.493,4.172-5.081,6.201-7.666
							c0.516,5.761,0.859,9.559,0.859,9.559s-1.322,8.111-1.844,17.811c-0.874,9.322-2.299,24.93-2.857,29.709
							c-0.097,0.836-0.141,1.599-0.148,2.307c-0.004,0.058-0.011,0.109-0.013,0.167c-0.455,8.845,0.874,28.69,4.931,49.07
							c0,0-0.343,0.711-0.324,1.13c-0.767,0.775-2.318,1.894-4.296,2.658c-2.507,0.969-7.756,1.27-4.886,2.314
							c2.869,1.045,6.278,0.607,8.004,0.407c1.725-0.201,3.39-0.174,5.415-0.11c2.667,0.085,2.693-0.073,2.445-2.986
							c-0.012-0.132-0.039-0.25-0.059-0.376c0.012,0.011,0.026,0.017,0.038,0.027c-0.689-10.915,4.541-35.988,1.877-50.283
							c2.767-7.956,5.545-19.742,7.36-28.102c0.964,7.736,5.656,21.653,8.223,31.229c0.291,1.084,1.366,2.208,2.761,3.009
							c0.514,0.715,1.096,1.44,1.818,2.182c7.368,7.561,19.081,29.47,26.508,37.981c-0.66,1.236-1.601,2.561-2.932,3.075
							c-2.507,0.968-6.959,2.094-4.09,3.14c2.87,1.045,6.279,0.607,8.004,0.407c1.725-0.201,2.135-2.322,3.937-3.248
							C452.065,328.855,451.708,328.999,451.459,326.086z"/>
					</defs>
					<clipPath id="SVGID_59_">
						<use xlink:href="#SVGID_58_"  overflow="visible"/>
					</clipPath>
					
						<linearGradient id="SVGID_60_" gradientUnits="userSpaceOnUse" x1="390.5599" y1="106.6141" x2="566.3331" y2="214.6055" gradientTransform="matrix(0.6495 -0.7044 -0.3629 -0.618 203.8686 671.0071)">
						<stop  offset="0" style="stop-color:#0000FF"/>
						<stop  offset="1" style="stop-color:#9E005D"/>
					</linearGradient>
					<path opacity="0.2" clip-path="url(#SVGID_59_)" fill="url(#SVGID_60_)" d="M486.093,137.336
						c-14.308-7.479-44.981-5.57-54.501,8.836c-9.72,14.709-3.288,28.542-17.029,46.583c-12.519,16.436-5.416,37.619-8.286,53.632
						c-3.153,17.581-31.009,8.144-42.254,29.38c-17.278,32.631,17.299,56.133,38.636,71.196
						c21.907,15.465,55.513,29.683,80.102,7.993c18.154-16.014,13.985-80.909,10.751-98.077
						c-4.642-24.651-28.331-8.915-14.214-32.22c8.447-13.946,16.398-40.226-6.704-43.423
						C449.491,178.039,506.699,148.105,486.093,137.336z"/>
				</g>
			</g>
			<g>
				<g>
					<linearGradient id="SVGID_61_" gradientUnits="userSpaceOnUse" x1="131.7708" y1="308.597" x2="358.0088" y2="308.597">
						<stop  offset="0" style="stop-color:#2C27CE"/>
						<stop  offset="1" style="stop-color:#EF1D68"/>
					</linearGradient>
					<path fill="url(#SVGID_61_)" d="M295.753,273.579l-3.597,32.603l-3.63,32.936c-0.354,3.274-2.675,6.107-5.654,7.314
						c-1.007,0.408-2.076,0.637-3.177,0.637h-62.188c-6.225,0-11.341-5.645-10.666-11.765l3.214-29.122l0.656-5.918
						c1.828-16.579,16.882-30.137,33.46-30.137h37.998c1.453,0,2.865,0.106,4.235,0.31
						C289.802,270.925,292.951,272.012,295.753,273.579z"/>
					<linearGradient id="SVGID_62_" gradientUnits="userSpaceOnUse" x1="266.9736" y1="277.646" x2="266.9736" y2="192.5576">
						<stop  offset="0" style="stop-color:#36078B"/>
						<stop  offset="1" style="stop-color:#16B1FF"/>
					</linearGradient>
					<path fill="url(#SVGID_62_)" d="M312.079,273.579l-3.597,32.603l-3.63,32.936c-0.477,4.375-4.457,7.951-8.831,7.951h-74.152
						l4.511-40.887l0.656-5.918c1.827-16.579,16.881-30.137,33.46-30.137h37.998C303.53,270.125,308.145,271.375,312.079,273.579z"
						/>
					<linearGradient id="SVGID_63_" gradientUnits="userSpaceOnUse" x1="371.0724" y1="305.7484" x2="371.0724" y2="198.5393">
						<stop  offset="0" style="stop-color:#2C27CE"/>
						<stop  offset="1" style="stop-color:#EF1D68"/>
					</linearGradient>
					<path fill="url(#SVGID_63_)" d="M456.238,234.711H308.592c-0.011,0-0.02-0.003-0.031-0.003H298.53
						c-0.011,0-0.022,0.003-0.032,0.003h-0.051c-4.375,0-8.347,3.576-8.831,7.951l-3.179,27.464l-0.034,0.31l-3.945,35.746
						l-3.63,32.936c-0.362,3.274,1.333,6.107,4.043,7.314c0.911,0.408,1.932,0.637,3.034,0.637h0.051
						c0.009,0,0.019,0.003,0.029,0.003h10.031c0.011,0,0.02-0.003,0.031-0.003h147.649c4.375,0,8.347-3.576,8.832-7.951
						l7.227-65.539l3.56-30.917C463.8,238.286,460.614,234.711,456.238,234.711z"/>
				</g>
				<g>
					<linearGradient id="SVGID_64_" gradientUnits="userSpaceOnUse" x1="131.7709" y1="308.5998" x2="358.0082" y2="308.5998">
						<stop  offset="0" style="stop-color:#2C27CE"/>
						<stop  offset="1" style="stop-color:#EF1D68"/>
					</linearGradient>
					<path fill="url(#SVGID_64_)" d="M429.848,270.128h-38.001c-16.088,0-30.707,12.784-33.227,28.692H216.23l-9.39,36.484
						c-0.674,6.12,4.441,11.765,10.666,11.765h135.717v0.003h74.146c4.377,0,8.355-3.58,8.833-7.955l7.227-65.535
						C439.494,271.374,434.88,270.128,429.848,270.128z"/>
					<linearGradient id="SVGID_65_" gradientUnits="userSpaceOnUse" x1="417.0761" y1="306.5183" x2="417.0761" y2="189.2346">
						<stop  offset="0" style="stop-color:#36078B"/>
						<stop  offset="1" style="stop-color:#16B1FF"/>
					</linearGradient>
					<path fill="url(#SVGID_65_)" d="M456.238,234.708h-10.031c-4.375,0-8.347,3.58-8.831,7.955l-3.183,27.465h-26.021
						c-16.575,0-31.629,13.557-33.46,30.131l-3.866,35.047c-0.675,6.121,4.443,11.765,10.666,11.765h52.152h10.031
						c4.375,0,8.353-3.58,8.833-7.955l7.227-65.535l3.562-30.918C463.803,238.288,460.614,234.708,456.238,234.708z"/>
				</g>
			</g>
			<g>
				
					<linearGradient id="SVGID_66_" gradientUnits="userSpaceOnUse" x1="338.0903" y1="234.9969" x2="319.5205" y2="281.2869" gradientTransform="matrix(-0.9677 -0.2523 -0.2523 0.9677 711.4605 79.3569)">
					<stop  offset="0" style="stop-color:#FF664F"/>
					<stop  offset="1" style="stop-color:#9E005D"/>
				</linearGradient>
				<path fill="url(#SVGID_66_)" d="M327.339,256.954c1.049-1.952,2.864-6.52,4.781-17.732c1.169-6.84,1.238-9.72,1.341-11.785
					c0.183-3.679-2.806-4.702-4.493-3.581c-2.72,1.805-4.767,5.629-4.97,7.585c-1.148,11.038-1.73,19.388-2.433,22.138
					C320.536,257.596,326.096,259.267,327.339,256.954z"/>
				
					<linearGradient id="SVGID_67_" gradientUnits="userSpaceOnUse" x1="341.3266" y1="302.6254" x2="334.2142" y2="320.3547" gradientTransform="matrix(-0.7279 -0.6857 -0.6857 0.7279 776.1629 251.0091)">
					<stop  offset="0" style="stop-color:#FF664F"/>
					<stop  offset="1" style="stop-color:#9E005D"/>
				</linearGradient>
				<path fill="url(#SVGID_67_)" d="M301.313,249.494c0.763,1.521,2.646,0.732,7.456,3.251c6.929,3.63,9.004,4.235,14.692,5.575
					c3.713,0.875,6.461-4.093,2.228-5.987c-3.577-1.601-20.454-4.934-22.624-5.913C301.627,245.773,300.694,248.259,301.313,249.494
					z"/>
				<path fill="#ED9169" d="M342.188,212.244c0.034,0.316,0.536,7.05,0.625,12.219c0.043,2.534-1.784,4.938-3.608,4.999
					c-0.027,0.001-0.054,0.001-0.081,0.001c-1.788,0-3.894-2.248-3.735-4.735c0.285-4.499,0.071-9.103,0.063-9.175L342.188,212.244z
					"/>
				<linearGradient id="SVGID_68_" gradientUnits="userSpaceOnUse" x1="331.6958" y1="267.494" x2="343.3426" y2="212.4734">
					<stop  offset="0" style="stop-color:#FF664F"/>
					<stop  offset="1" style="stop-color:#9E005D"/>
				</linearGradient>
				<path fill="url(#SVGID_68_)" d="M347.417,241.346c-1.571,4.579-2.435,9.377-3.231,14.144c-0.583,3.499-0.432,7.142,0.043,10.648
					c0.289,2.126,0.707,4.231,1.189,6.321c0.183,0.79,1.738,7.174,1.811,7.857c0,0-27.537,0-29.145,0
					c0.277-5.711,6.782-23.649,2.38-35.265c-3.048-8.045,1-8.292,3.748-14.988c0.673-1.641,1.216-3.442,2.328-4.856
					c1.073-1.366,2.793-2.317,4.46-2.736c0.886-0.222,1.8-0.305,2.71-0.38c4.931-0.397,16.546-1.827,17.638,5.191
					c0.297,1.914,0.004,3.839-0.579,5.672c-0.65,2.048-1.624,3.976-2.439,5.963C348,239.719,347.697,240.529,347.417,241.346z"/>
				<path fill="#FFAF84" d="M332.306,238.838c-1.338-1.115-3.121-2.238-4.375-2.4c-1.253-0.163,0.835,1.575,1.785,2.489
					C330.665,239.841,333.432,239.777,332.306,238.838z"/>
				<path fill="#FFAF84" d="M330.764,238.456c-3.534-0.66-5.306-1.591-6.955-1.018s0.644,2.913,1.839,3.331
					c1.195,0.417,5.385,2.169,6.669,1.38C333.602,241.358,333.373,238.945,330.764,238.456z"/>
				
					<linearGradient id="SVGID_69_" gradientUnits="userSpaceOnUse" x1="325.1407" y1="238.619" x2="322.9833" y2="257.1476" gradientTransform="matrix(1 0 0.4946 1 -131.1373 0)">
					<stop  offset="0" style="stop-color:#36078B"/>
					<stop  offset="1" style="stop-color:#16B1FF"/>
				</linearGradient>
				<path fill="url(#SVGID_69_)" d="M328.464,254.32h-21.356c-0.961,0-1.839-0.545-2.266-1.407l-6.628-13.401
					c-0.831-1.68,0.392-3.648,2.266-3.648h21.356c0.961,0,1.839,0.545,2.264,1.407l6.629,13.402
					C331.561,252.352,330.338,254.32,328.464,254.32z"/>
				<g>
					<g>
						<polygon fill="#4BADF7" points="307.899,244.847 316.726,244.847 316.386,244.214 307.558,244.214 						"/>
						<polygon fill="#4BADF7" points="311.39,245.972 317.333,245.972 316.993,245.338 311.049,245.338 						"/>
					</g>
				</g>
				
					<linearGradient id="SVGID_70_" gradientUnits="userSpaceOnUse" x1="324.7212" y1="239.0644" x2="322.625" y2="257.0674" gradientTransform="matrix(1 0 0.4946 1 -131.1373 0)">
					<stop  offset="0" style="stop-color:#36078B"/>
					<stop  offset="1" style="stop-color:#16B1FF"/>
				</linearGradient>
				<path fill="url(#SVGID_70_)" d="M327.799,254.32h-20.75c-0.934,0-1.786-0.529-2.201-1.366l-6.439-13.021
					c-0.808-1.632,0.38-3.545,2.2-3.545h20.75c0.934,0,1.786,0.53,2.201,1.368l6.439,13.021
					C330.807,252.409,329.619,254.32,327.799,254.32z"/>
				
					<linearGradient id="SVGID_71_" gradientUnits="userSpaceOnUse" x1="315.9797" y1="199.0367" x2="319.4603" y2="166.9082" gradientTransform="matrix(-0.9765 0.2157 0.2157 0.9765 591.1317 -59.0621)">
					<stop  offset="0" style="stop-color:#36078B"/>
					<stop  offset="1" style="stop-color:#16B1FF"/>
				</linearGradient>
				<path fill="url(#SVGID_71_)" d="M323.18,203.535c1.212,6.727,2.602,17.722,2.107,19.808c0,0,9.143-2.551,9.948-7.598
					c0.804-5.047-4.857-19.407-10.146-18.764"/>
				
					<linearGradient id="SVGID_72_" gradientUnits="userSpaceOnUse" x1="348.0843" y1="249.2513" x2="327.807" y2="299.7978" gradientTransform="matrix(-0.6871 -0.2658 -0.349 0.937 676.0389 79.7629)">
					<stop  offset="0" style="stop-color:#FF664F"/>
					<stop  offset="1" style="stop-color:#9E005D"/>
				</linearGradient>
				<path fill="url(#SVGID_72_)" d="M352.929,257.091c0.522-2.154,1.125-7.032,0.152-18.364c-0.594-6.914-1.253-9.719-1.675-11.742
					c-0.751-3.607-3.9-3.842-5.25-2.332c-2.177,2.433-3.193,6.649-2.897,8.593c1.673,10.971,3.218,19.196,3.231,22.036
					C346.508,259.428,352.309,259.642,352.929,257.091z"/>
				
					<linearGradient id="SVGID_73_" gradientUnits="userSpaceOnUse" x1="332.5457" y1="233.4846" x2="319.7411" y2="265.4033" gradientTransform="matrix(0.7827 0.6224 -0.6224 0.7827 251.3803 -154.7747)">
					<stop  offset="0" style="stop-color:#FF664F"/>
					<stop  offset="1" style="stop-color:#9E005D"/>
				</linearGradient>
				<path fill="url(#SVGID_73_)" d="M330.462,241.357c-0.001,1.352,2.542,1.739,5.921,5.991c4.867,6.124,6.519,7.518,11.177,11.046
					c3.041,2.303,7.565-1.127,4.461-4.572c-2.622-2.912-16.799-13.034-18.755-14.393
					C332.072,238.599,330.465,239.974,330.462,241.357z"/>
				<path fill="#FFAF84" d="M343.396,206.222c0.68,5.739,0.789,7.018-1.155,9.86c-1.945,2.841-5.221,4.669-7.882,5.256
					c-2.874,0.635-5.674-1.931-6.85-4.163c-1.216-2.311-3.274-7.909-3.826-14.236c-0.28-3.207,2.733-7.838,6.7-8.714
					C334.349,193.349,341.737,192.2,343.396,206.222z"/>
				<path fill="#FFAF84" d="M305.924,248.599c-0.493-0.874-2.446-3.203-3.113-3.714c-1.556-1.195-3.164-0.907-3.325-0.362
					c-0.238,0.812-0.245,3.087,0.708,3.935c0.809,0.718,2.065,1.108,3.033,1.018C304.194,249.386,306.729,250.027,305.924,248.599z"
					/>
				
					<linearGradient id="SVGID_74_" gradientUnits="userSpaceOnUse" x1="345.5276" y1="323.753" x2="348.3195" y2="289.3683" gradientTransform="matrix(-1 0 0 1 652.6152 0)">
					<stop  offset="0" style="stop-color:#36078B"/>
					<stop  offset="1" style="stop-color:#16B1FF"/>
				</linearGradient>
				<path fill="url(#SVGID_74_)" d="M306.682,293.586c-0.333,0.648-1.925,2.145-4.129,3.129c-2.205,0.986-6.881,1.447-4.284,2.314
					c2.597,0.868,5.625,0.343,7.158,0.097c1.533-0.246,3.02-0.28,4.83-0.292c2.383-0.015,2.402-0.163,2.081-2.853
					C311.897,292.278,307.756,291.493,306.682,293.586z"/>
				
					<linearGradient id="SVGID_75_" gradientUnits="userSpaceOnUse" x1="377.9184" y1="397.61" x2="380.7102" y2="363.2267" gradientTransform="matrix(-0.7964 -0.6048 -0.6048 0.7964 787.4966 282.4609)">
					<stop  offset="0" style="stop-color:#36078B"/>
					<stop  offset="1" style="stop-color:#16B1FF"/>
				</linearGradient>
				<path fill="url(#SVGID_75_)" d="M263.969,346.282c-0.656,0.314-2.829,0.544-5.181-0.005c-2.352-0.549-6.354-3.009-4.812-0.747
					c1.544,2.262,4.273,3.674,5.644,4.405c1.369,0.732,2.574,1.603,4.023,2.69c1.908,1.428,2.011,1.323,3.383-1.014
					C268.914,348.395,266.09,345.267,263.969,346.282z"/>
				
					<linearGradient id="SVGID_76_" gradientUnits="userSpaceOnUse" x1="306.7489" y1="198.0374" x2="310.2295" y2="165.9085" gradientTransform="matrix(-0.9765 0.2157 0.2157 0.9765 591.1317 -59.0621)">
					<stop  offset="0" style="stop-color:#36078B"/>
					<stop  offset="1" style="stop-color:#16B1FF"/>
				</linearGradient>
				<path fill="url(#SVGID_76_)" d="M323.976,199.794c-1.369,4.239,16.132,7.597,19.553,6.221c3.421-1.377,1.116-7.978-2.388-10.815
					C337.636,192.362,327.206,189.787,323.976,199.794z"/>
				
					<linearGradient id="SVGID_77_" gradientUnits="userSpaceOnUse" x1="314.1583" y1="198.8392" x2="317.6387" y2="166.7128" gradientTransform="matrix(-0.9765 0.2157 0.2157 0.9765 591.1317 -59.0621)">
					<stop  offset="0" style="stop-color:#36078B"/>
					<stop  offset="1" style="stop-color:#16B1FF"/>
				</linearGradient>
				<path fill="url(#SVGID_77_)" d="M329.693,197.54c0.124,3.305-5.283,5.264-5.65,8.103c-0.229,1.761-1.64-3.332-0.851-5.954
					C323.98,197.067,329.444,190.896,329.693,197.54z"/>
				
					<linearGradient id="SVGID_78_" gradientUnits="userSpaceOnUse" x1="301.104" y1="197.4253" x2="304.5846" y2="165.2971" gradientTransform="matrix(-0.9765 0.2157 0.2157 0.9765 591.1317 -59.0621)">
					<stop  offset="0" style="stop-color:#36078B"/>
					<stop  offset="1" style="stop-color:#16B1FF"/>
				</linearGradient>
				<path fill="url(#SVGID_78_)" d="M342.813,205.325c1.636,6.636-2.251,12.669-2.746,14.753c0,0,9.142-2.55,9.946-7.597
					c0.805-5.047-1.996-23.69-19.86-19.406"/>
				<linearGradient id="SVGID_79_" gradientUnits="userSpaceOnUse" x1="264.5023" y1="328.4536" x2="303.3239" y2="264.8664">
					<stop  offset="0" style="stop-color:#2C27CE"/>
					<stop  offset="0.6488" style="stop-color:#EF1D68"/>
					<stop  offset="1" style="stop-color:#EFBA92"/>
				</linearGradient>
				<path fill="url(#SVGID_79_)" d="M282.54,264.241c-5.265-7.531,2.099-12.003,7.943-6.873
					c9.199,8.073,13.981,24.806,21.431,37.149c-2.605-1.29-4.318-1.29-4.853-0.887c-0.87,0.653-1.64,1.309-1.64,1.309
					C295.388,278.821,288.168,272.29,282.54,264.241z"/>
				<linearGradient id="SVGID_80_" gradientUnits="userSpaceOnUse" x1="296.245" y1="347.8352" x2="335.0679" y2="284.246">
					<stop  offset="0" style="stop-color:#2C27CE"/>
					<stop  offset="0.6488" style="stop-color:#EF1D68"/>
					<stop  offset="1" style="stop-color:#EFBA92"/>
				</linearGradient>
				<path fill="url(#SVGID_80_)" d="M342.504,298.82c0,0,9.789,0.689,4.724-18.504h-29.145c0,0-7.474,10.051,4.028,18.504H342.504z"
					/>
				<linearGradient id="SVGID_81_" gradientUnits="userSpaceOnUse" x1="270.769" y1="332.2803" x2="309.5912" y2="268.6923">
					<stop  offset="0" style="stop-color:#2C27CE"/>
					<stop  offset="0.6488" style="stop-color:#EF1D68"/>
					<stop  offset="1" style="stop-color:#EFBA92"/>
				</linearGradient>
				<path fill="url(#SVGID_81_)" d="M282.748,263.335c-2.503-3.017-0.708-13.638,10.124-5.279
					c4.805,3.708,32.051,23.091,34.614,25.058c2.561,1.967,3.22,4.82,2.9,6.454c-1.602,8.164-10.649,9.404-20.046,0.959
					C304.24,285.045,287.936,269.59,282.748,263.335z"/>
				<linearGradient id="SVGID_82_" gradientUnits="userSpaceOnUse" x1="215.2159" y1="427.6502" x2="301.6962" y2="299.6702">
					<stop  offset="0" style="stop-color:#2C27CE"/>
					<stop  offset="0.6488" style="stop-color:#EF1D68"/>
					<stop  offset="1" style="stop-color:#EFBA92"/>
				</linearGradient>
				<path fill="url(#SVGID_82_)" d="M288.993,308.112c5.1-8.74,13.315-3.312,10.618,3.958
					c-3.815,10.279-26.738,32.872-31.338,37.368c-0.603,0.588-0.812,0.171-1.035-0.276c-0.654-1.311-1.305-2.361-1.834-2.544
					c-0.921-0.318-2.353-0.101-2.353-0.101C268.429,339.546,284.054,316.578,288.993,308.112z"/>
				<linearGradient id="SVGID_83_" gradientUnits="userSpaceOnUse" x1="227.5735" y1="436.0018" x2="314.0543" y2="308.0212">
					<stop  offset="0" style="stop-color:#2C27CE"/>
					<stop  offset="0.6488" style="stop-color:#EF1D68"/>
					<stop  offset="1" style="stop-color:#EFBA92"/>
				</linearGradient>
				<path fill="url(#SVGID_83_)" d="M329.129,284.821c11.761-3.52,21.385,1.295,18.938,9.283c-1.029,3.362-4.125,5.163-7.173,6.228
					c-3.049,1.065-35.154,10.132-40.877,12.147c-12.899,4.541-11.447-6.307-8.001-8.176
					C300.718,299.586,322.721,286.74,329.129,284.821z"/>
				
					<ellipse transform="matrix(-0.9257 -0.3782 0.3782 -0.9257 584.2199 531.1467)" fill="#FFAF84" cx="344.262" cy="208.21" rx="2.038" ry="3.891"/>
				<g>
					<defs>
						<path id="SVGID_84_" d="M353.081,238.726c-0.594-6.914-1.253-9.719-1.675-11.742c-0.261-1.255-0.816-2.094-1.481-2.601
							c-1.61-1.688-4.32-2.383-7.188-2.598c-0.032-0.88-0.071-1.764-0.115-2.623c2.769-1.15,6.863-3.376,7.39-6.681
							c0.786-4.931-1.878-22.83-18.665-19.652c-0.128,0.023-0.256,0.05-0.385,0.079c-0.269,0.055-0.533,0.1-0.81,0.166l0.042,0.041
							c-1.14,0.353-2.224,0.946-3.196,1.813c-1.595,0.91-3.381,3.346-3.806,4.76c-0.498,1.657-0.118,4.297,0.287,5.574
							c1.127,6.737,2.263,16.164,1.808,18.08c0,0,3.052-0.858,5.785-2.551c1.022,0.534,2.146,0.8,3.286,0.547
							c0.378-0.084,0.77-0.198,1.169-0.331c-0.004,0.306-0.011,0.617-0.019,0.933c-0.657,0.054-1.272,0.109-1.799,0.151
							c-0.91,0.074-1.824,0.157-2.71,0.38c-1.667,0.419-3.387,1.369-4.46,2.736c-1.112,1.414-1.655,3.215-2.328,4.856
							c-1.088,2.651-2.374,4.289-3.348,5.802h-20.383c-1.874,0-3.096,1.968-2.266,3.648l0.16,0.324
							c0.015,0.031,0.017,0.063,0.034,0.096l2.042,4.13c-0.52,0.031-0.893,0.214-0.965,0.459c-0.238,0.812-0.245,3.087,0.708,3.934
							c0.281,0.25,0.625,0.443,0.983,0.607c0.032,0.152,0.071,0.301,0.136,0.431c0.408,0.814,1.155,0.975,2.48,1.325l1.055,2.135
							c0.415,0.837,1.267,1.366,2.201,1.366h0.059h4.752c4.067,1.998,6.299,2.715,10.003,3.617
							c-0.475,7.036-2.299,14.098-3.232,18.767c-9.196-6.608-22.534-16.159-25.759-18.649c-4.089-3.156-6.888-3.604-8.657-2.781
							c-3.247,0.617-5.034,4.161-1.675,8.966c5.628,8.049,12.846,14.579,22.88,30.695c-0.727,0.603-1.708,1.261-2.868,1.778
							c-2.205,0.986-6.881,1.447-4.284,2.314c0.792,0.265,1.621,0.39,2.437,0.443c-3.434,1.925-6.488,3.639-8.689,4.832
							c-0.664,0.359-1.251,1.054-1.679,1.906c-0.464,0.541-0.915,1.169-1.345,1.902c-4.938,8.465-20.557,31.423-25.938,38.401
							c-1.011,0.149-2.588,0.156-4.266-0.236c-2.352-0.549-6.354-3.009-4.812-0.747c1.544,2.262,4.273,3.674,5.644,4.405
							c1.369,0.732,2.574,1.603,4.023,2.69c1.908,1.428,2.011,1.323,3.383-1.014c0.384-0.654,0.565-1.303,0.604-1.917
							c0.153,0.074,0.351,0.028,0.642-0.256c4.51-4.408,26.618-26.201,31.079-36.742c0.221-0.071,0.436-0.136,0.666-0.217
							c5.723-2.015,37.827-11.083,40.877-12.147c1.52-0.53,3.052-1.247,4.334-2.247c2.452-1.426,5.213-5.596,2.001-17.769
							c-0.073-0.683-1.628-7.067-1.811-7.857c-0.482-2.089-0.899-4.195-1.189-6.321c-0.464-3.426-0.609-6.982-0.07-10.408
							c0.985,0.821,2.068,1.655,3.401,2.664c1.583,1.198,3.558,0.837,4.661-0.264c0.345-0.268,0.603-0.611,0.708-1.039
							C353.451,254.937,354.054,250.059,353.081,238.726z M345.601,247.977c0.028,0.184,0.058,0.373,0.085,0.552
							c-0.062-0.049-0.12-0.094-0.183-0.141C345.532,248.25,345.57,248.114,345.601,247.977z M313.009,292.654
							c-0.548,0.297-1.1,0.598-1.652,0.901c-0.792-1.357-1.558-2.754-2.299-4.189c0.464,0.424,0.894,0.813,1.282,1.162
							C311.235,291.332,312.126,292.022,313.009,292.654z"/>
					</defs>
					<clipPath id="SVGID_85_">
						<use xlink:href="#SVGID_84_"  overflow="visible"/>
					</clipPath>
					
						<linearGradient id="SVGID_86_" gradientUnits="userSpaceOnUse" x1="292.5911" y1="164.5782" x2="463.4032" y2="269.5217" gradientTransform="matrix(0.6495 -0.7044 -0.3629 -0.618 203.8691 671.0071)">
						<stop  offset="0" style="stop-color:#0000FF"/>
						<stop  offset="1" style="stop-color:#9E005D"/>
					</linearGradient>
					<path opacity="0.2" clip-path="url(#SVGID_85_)" fill="url(#SVGID_86_)" d="M410.966,178.783
						c-14.309-7.479-39.121-4.378-48.641,10.029c-9.719,14.708-0.1,26.401-17.361,45.523
						c-13.654,15.124-10.945,37.487-13.815,53.498c-3.152,17.582-31.009,8.145-42.253,29.381
						c-17.279,32.631,17.299,56.131,38.637,71.195c21.905,15.466,38.004-16.875,62.592-38.565
						c18.154-16.014,31.493-34.35,28.261-51.518c-4.642-24.653-28.331-8.916-14.215-32.222c8.448-13.945,16.399-40.225-6.704-43.421
						C374.364,219.486,431.572,189.552,410.966,178.783z"/>
				</g>
			</g>
			<g>
				<linearGradient id="SVGID_87_" gradientUnits="userSpaceOnUse" x1="465.2509" y1="125.8818" x2="465.2509" y2="137.4782">
					<stop  offset="0" style="stop-color:#2CA6EF"/>
					<stop  offset="1" style="stop-color:#B1FFFF"/>
				</linearGradient>
				<circle fill="url(#SVGID_87_)" cx="465.251" cy="124.596" r="9.596"/>
				<linearGradient id="SVGID_88_" gradientUnits="userSpaceOnUse" x1="465.251" y1="120.4369" x2="465.251" y2="-35.036">
					<stop  offset="0" style="stop-color:#2CA6EF"/>
					<stop  offset="1" style="stop-color:#B1FFFF"/>
				</linearGradient>
				<path fill="url(#SVGID_88_)" d="M474.864,114.232v-7.944c0-2.33-1.906-4.236-4.237-4.236h-3.947V-0.876h-2.858v102.929h-3.947
					c-2.33,0-4.237,1.906-4.237,4.236v7.944c-5.786,3.332-9.686,9.574-9.686,16.731h38.599
					C484.55,123.807,480.65,117.565,474.864,114.232z"/>
			</g>
		</g>
	</g>
	<g>
		<g>
			<g>
				<defs>
					<path id="SVGID_89_" d="M499.786,3.949v403.923c0,2.66-2.165,4.825-4.825,4.825h-610.709c-2.661,0-4.825-2.165-4.825-4.825
						V3.949c0-2.661,2.164-4.825,4.825-4.825h610.709C497.621-0.876,499.786,1.288,499.786,3.949z"/>
				</defs>
				<clipPath id="SVGID_90_">
					<use xlink:href="#SVGID_89_"  overflow="visible"/>
				</clipPath>
			</g>
			<g>
				<g>
					<defs>
						<path id="SVGID_91_" d="M451.459,326.086c-0.066-0.78-0.287-1.396-0.603-1.874c0.082-0.168,0.035-0.384-0.265-0.697
							c-4.41-4.596-14.972-36.32-25.322-44.646c-0.019-0.323-0.038-0.646-0.071-0.99c-0.629-6.369-2.103-31.893-2.48-36.289
							c0.176-3.044,0.069-6.897-0.707-11.581c-2.581-9.646-3.523-33.137-1.757-47.919c0.053-0.441,0.097-0.883,0.129-1.325
							c0.248-3.3-0.009-6.974-1.98-9.762c-0.35-0.497-0.759-0.917-1.19-1.304c-0.128-0.117-0.26-0.226-0.397-0.327
							c-2.291-1.803-5.43-2.338-8.349-2.314c-0.298,0.003-0.592,0.032-0.887,0.045c-0.788-1.91-1.698-3.937-2.505-5.68
							c0.648-1.281,0.832-2.403,0.727-4.138c0.848-0.43,1.606-1.747,1.852-3.401c0.316-2.126-0.329-3.984-1.443-4.149
							c-0.153-0.024-0.31-0.005-0.463,0.036c0.061-1.435-0.645-3.003-1.978-5.437c-0.954-1.743-1.9-2.33-2.877-2.251
							c1.136-3.836-11.276-1.263-12.508-1.444c-2.464-0.362-0.623-1.514-3.386-0.833c-4.317,1.489-3.621,7.043-0.728,8.406
							c-0.913,2.042,0.704,4.602,1.941,6.147c0.965,4.403,2.453,8.023,3.415,9.757c1.224,2.206,4.083,4.709,6.944,4.009
							c0.187-0.046,0.382-0.112,0.573-0.17c0.114,0.32,0.229,0.653,0.342,0.99c-1.908,0.553-3.757,1.268-5.411,2.356
							c-2.726,1.794-5.023,4.713-5.73,7.933c-0.736,3.351-0.732,6.75-0.436,10.156c0.083,0.952,0.167,1.912,0.252,2.876
							c-0.09,1.458-0.182,2.917-0.273,4.375c-3.518,1.867-7.899,4.303-13.278,6.49c-0.354-0.215-0.782-0.296-1.299-0.133
							c-1.27,0.401-6.041,1.621-7.301,3.15c-0.039,0.018-0.074,0.033-0.114,0.052c-0.707,0.329-4.89,2.295-4.529,2.956
							c0.549,1.006,3.362-0.171,5.226-0.944c0.011-0.004,0.022-0.011,0.032-0.016c2.018,1.836,3.98,1.952,5.63,1.506
							c1.177-0.316,1.949-0.662,2.473-1.068c2.351,0.525,5.085-0.594,10.646-2.083c0.583-0.156,1.169-0.313,1.754-0.469
							c-0.129,1.043-0.334,2.071-0.755,2.859c-0.234,0.438-0.57,0.812-0.893,1.187c-2.845,3.312-4.676,7.131-6.571,11.02
							c-1.432,2.943-2.637,6.71-4.797,9.219c-0.199,0.232-0.315,0.482-0.393,0.732c-1.59,0.361-3.381,0.754-4.498,0.929
							c-1.537,0.238-1.115,3.761-0.23,4.331c1.315,0.849,5.806,1.575,6.784-0.172c0.977-1.746,2.85-1.342,3.199-3.106
							c0.085-0.431,0.088-0.833,0.004-1.186c1.403-0.825,2.966-2.229,5.37-5.015c2.153-2.493,4.172-5.081,6.201-7.666
							c0.516,5.761,0.859,9.559,0.859,9.559s-1.322,8.111-1.844,17.811c-0.874,9.322-2.299,24.93-2.857,29.709
							c-0.097,0.836-0.141,1.599-0.148,2.307c-0.004,0.058-0.011,0.109-0.013,0.167c-0.455,8.845,0.874,28.69,4.931,49.07
							c0,0-0.343,0.711-0.324,1.13c-0.767,0.775-2.318,1.894-4.296,2.658c-2.507,0.969-7.756,1.27-4.886,2.314
							c2.869,1.045,6.278,0.607,8.004,0.407c1.725-0.201,3.39-0.174,5.415-0.11c2.667,0.085,2.693-0.073,2.445-2.986
							c-0.012-0.132-0.039-0.25-0.059-0.376c0.012,0.011,0.026,0.017,0.038,0.027c-0.689-10.915,4.541-35.988,1.877-50.283
							c2.767-7.956,5.545-19.742,7.36-28.102c0.964,7.736,5.656,21.653,8.223,31.229c0.291,1.084,1.366,2.208,2.761,3.009
							c0.514,0.715,1.096,1.44,1.818,2.182c7.368,7.561,19.081,29.47,26.508,37.981c-0.66,1.236-1.601,2.561-2.932,3.075
							c-2.507,0.968-6.959,2.094-4.09,3.14c2.87,1.045,6.279,0.607,8.004,0.407c1.725-0.201,2.135-2.322,3.937-3.248
							C452.065,328.855,451.708,328.999,451.459,326.086z"/>
					</defs>
					<clipPath id="SVGID_92_">
						<use xlink:href="#SVGID_91_"  overflow="visible"/>
					</clipPath>
				</g>
			</g>
			<g>
				<g>
					<defs>
						<path id="SVGID_93_" d="M353.081,238.726c-0.594-6.914-1.253-9.719-1.675-11.742c-0.261-1.255-0.816-2.094-1.481-2.601
							c-1.61-1.688-4.32-2.383-7.188-2.598c-0.032-0.88-0.071-1.764-0.115-2.623c2.769-1.15,6.863-3.376,7.39-6.681
							c0.786-4.931-1.878-22.83-18.665-19.652c-0.128,0.023-0.256,0.05-0.385,0.079c-0.269,0.055-0.533,0.1-0.81,0.166l0.042,0.041
							c-1.14,0.353-2.224,0.946-3.196,1.813c-1.595,0.91-3.381,3.346-3.806,4.76c-0.498,1.657-0.118,4.297,0.287,5.574
							c1.127,6.737,2.263,16.164,1.808,18.08c0,0,3.052-0.858,5.785-2.551c1.022,0.534,2.146,0.8,3.286,0.547
							c0.378-0.084,0.77-0.198,1.169-0.331c-0.004,0.306-0.011,0.617-0.019,0.933c-0.657,0.054-1.272,0.109-1.799,0.151
							c-0.91,0.074-1.824,0.157-2.71,0.38c-1.667,0.419-3.387,1.369-4.46,2.736c-1.112,1.414-1.655,3.215-2.328,4.856
							c-1.088,2.651-2.374,4.289-3.348,5.802h-20.383c-1.874,0-3.096,1.968-2.266,3.648l0.16,0.324
							c0.015,0.031,0.017,0.063,0.034,0.096l2.042,4.13c-0.52,0.031-0.893,0.214-0.965,0.459c-0.238,0.812-0.245,3.087,0.708,3.934
							c0.281,0.25,0.625,0.443,0.983,0.607c0.032,0.152,0.071,0.301,0.136,0.431c0.408,0.814,1.155,0.975,2.48,1.325l1.055,2.135
							c0.415,0.837,1.267,1.366,2.201,1.366h0.059h4.752c4.067,1.998,6.299,2.715,10.003,3.617
							c-0.475,7.036-2.299,14.098-3.232,18.767c-9.196-6.608-22.534-16.159-25.759-18.649c-4.089-3.156-6.888-3.604-8.657-2.781
							c-3.247,0.617-5.034,4.161-1.675,8.966c5.628,8.049,12.846,14.579,22.88,30.695c-0.727,0.603-1.708,1.261-2.868,1.778
							c-2.205,0.986-6.881,1.447-4.284,2.314c0.792,0.265,1.621,0.39,2.437,0.443c-3.434,1.925-6.488,3.639-8.689,4.832
							c-0.664,0.359-1.251,1.054-1.679,1.906c-0.464,0.541-0.915,1.169-1.345,1.902c-4.938,8.465-20.557,31.423-25.938,38.401
							c-1.011,0.149-2.588,0.156-4.266-0.236c-2.352-0.549-6.354-3.009-4.812-0.747c1.544,2.262,4.273,3.674,5.644,4.405
							c1.369,0.732,2.574,1.603,4.023,2.69c1.908,1.428,2.011,1.323,3.383-1.014c0.384-0.654,0.565-1.303,0.604-1.917
							c0.153,0.074,0.351,0.028,0.642-0.256c4.51-4.408,26.618-26.201,31.079-36.742c0.221-0.071,0.436-0.136,0.666-0.217
							c5.723-2.015,37.827-11.083,40.877-12.147c1.52-0.53,3.052-1.247,4.334-2.247c2.452-1.426,5.213-5.596,2.001-17.769
							c-0.073-0.683-1.628-7.067-1.811-7.857c-0.482-2.089-0.899-4.195-1.189-6.321c-0.464-3.426-0.609-6.982-0.07-10.408
							c0.985,0.821,2.068,1.655,3.401,2.664c1.583,1.198,3.558,0.837,4.661-0.264c0.345-0.268,0.603-0.611,0.708-1.039
							C353.451,254.937,354.054,250.059,353.081,238.726z M345.601,247.977c0.028,0.184,0.058,0.373,0.085,0.552
							c-0.062-0.049-0.12-0.094-0.183-0.141C345.532,248.25,345.57,248.114,345.601,247.977z M313.009,292.654
							c-0.548,0.297-1.1,0.598-1.652,0.901c-0.792-1.357-1.558-2.754-2.299-4.189c0.464,0.424,0.894,0.813,1.282,1.162
							C311.235,291.332,312.126,292.022,313.009,292.654z"/>
					</defs>
					<clipPath id="SVGID_94_">
						<use xlink:href="#SVGID_93_"  overflow="visible"/>
					</clipPath>
				</g>
			</g>
		</g>
	</g>
</g>
</svg>
